G04 #@! TF.GenerationSoftware,KiCad,Pcbnew,(5.1.2)-1*
G04 #@! TF.CreationDate,2019-10-23T14:31:02-07:00*
G04 #@! TF.ProjectId,SparkFun-Cherry-MX-Switch-Breakout,53706172-6b46-4756-9e2d-436865727279,rev?*
G04 #@! TF.SameCoordinates,Original*
G04 #@! TF.FileFunction,Legend,Bot*
G04 #@! TF.FilePolarity,Positive*
%FSLAX46Y46*%
G04 Gerber Fmt 4.6, Leading zero omitted, Abs format (unit mm)*
G04 Created by KiCad (PCBNEW (5.1.2)-1) date 2019-10-23 14:31:02*
%MOMM*%
%LPD*%
G04 APERTURE LIST*
%ADD10C,0.266700*%
%ADD11C,0.190500*%
%ADD12C,0.121920*%
%ADD13C,0.228600*%
%ADD14C,0.152400*%
%ADD15C,0.150000*%
%ADD16C,0.101600*%
G04 APERTURE END LIST*
D10*
X194064978Y-103930650D02*
X192778045Y-103930650D01*
X193421511Y-104574116D02*
X193421511Y-103287183D01*
X175014978Y-103930650D02*
X173728045Y-103930650D01*
X174371511Y-104574116D02*
X174371511Y-103287183D01*
D11*
X193597436Y-99275797D02*
X194286865Y-99275797D01*
X193942151Y-99275797D02*
X193942151Y-98069297D01*
X194057055Y-98241654D01*
X194171960Y-98356559D01*
X194286865Y-98414011D01*
X174547436Y-99275797D02*
X175236865Y-99275797D01*
X174892151Y-99275797D02*
X174892151Y-98069297D01*
X175007055Y-98241654D01*
X175121960Y-98356559D01*
X175236865Y-98414011D01*
X194286865Y-95644202D02*
X194229413Y-95586750D01*
X194114508Y-95529297D01*
X193827246Y-95529297D01*
X193712341Y-95586750D01*
X193654889Y-95644202D01*
X193597436Y-95759107D01*
X193597436Y-95874011D01*
X193654889Y-96046369D01*
X194344317Y-96735797D01*
X193597436Y-96735797D01*
X175236865Y-95644202D02*
X175179413Y-95586750D01*
X175064508Y-95529297D01*
X174777246Y-95529297D01*
X174662341Y-95586750D01*
X174604889Y-95644202D01*
X174547436Y-95759107D01*
X174547436Y-95874011D01*
X174604889Y-96046369D01*
X175294317Y-96735797D01*
X174547436Y-96735797D01*
D12*
X193247733Y-102757230D02*
X193247733Y-101985070D01*
X192806499Y-102757230D02*
X193137424Y-102315996D01*
X192806499Y-101985070D02*
X193247733Y-102426304D01*
X192144647Y-102757230D02*
X192144647Y-102352765D01*
X192181417Y-102279226D01*
X192254956Y-102242457D01*
X192402034Y-102242457D01*
X192475573Y-102279226D01*
X192144647Y-102720460D02*
X192218186Y-102757230D01*
X192402034Y-102757230D01*
X192475573Y-102720460D01*
X192512342Y-102646921D01*
X192512342Y-102573382D01*
X192475573Y-102499843D01*
X192402034Y-102463074D01*
X192218186Y-102463074D01*
X192144647Y-102426304D01*
X191776952Y-102757230D02*
X191776952Y-102242457D01*
X191776952Y-101985070D02*
X191813721Y-102021840D01*
X191776952Y-102058609D01*
X191740182Y-102021840D01*
X191776952Y-101985070D01*
X191776952Y-102058609D01*
X191298948Y-102757230D02*
X191372487Y-102720460D01*
X191409257Y-102646921D01*
X191409257Y-101985070D01*
X191004792Y-102757230D02*
X191004792Y-101985070D01*
X190673866Y-102757230D02*
X190673866Y-102352765D01*
X190710636Y-102279226D01*
X190784175Y-102242457D01*
X190894483Y-102242457D01*
X190968022Y-102279226D01*
X191004792Y-102315996D01*
X189276624Y-102683691D02*
X189313394Y-102720460D01*
X189423702Y-102757230D01*
X189497241Y-102757230D01*
X189607550Y-102720460D01*
X189681089Y-102646921D01*
X189717859Y-102573382D01*
X189754628Y-102426304D01*
X189754628Y-102315996D01*
X189717859Y-102168918D01*
X189681089Y-102095379D01*
X189607550Y-102021840D01*
X189497241Y-101985070D01*
X189423702Y-101985070D01*
X189313394Y-102021840D01*
X189276624Y-102058609D01*
X188945699Y-102757230D02*
X188945699Y-101985070D01*
X188614773Y-102757230D02*
X188614773Y-102352765D01*
X188651542Y-102279226D01*
X188725081Y-102242457D01*
X188835390Y-102242457D01*
X188908929Y-102279226D01*
X188945699Y-102315996D01*
X188136769Y-102757230D02*
X188210308Y-102720460D01*
X188247078Y-102683691D01*
X188283847Y-102610152D01*
X188283847Y-102389535D01*
X188247078Y-102315996D01*
X188210308Y-102279226D01*
X188136769Y-102242457D01*
X188026460Y-102242457D01*
X187952921Y-102279226D01*
X187916152Y-102315996D01*
X187879382Y-102389535D01*
X187879382Y-102610152D01*
X187916152Y-102683691D01*
X187952921Y-102720460D01*
X188026460Y-102757230D01*
X188136769Y-102757230D01*
X187217531Y-102720460D02*
X187291070Y-102757230D01*
X187438148Y-102757230D01*
X187511687Y-102720460D01*
X187548457Y-102683691D01*
X187585226Y-102610152D01*
X187585226Y-102389535D01*
X187548457Y-102315996D01*
X187511687Y-102279226D01*
X187438148Y-102242457D01*
X187291070Y-102242457D01*
X187217531Y-102279226D01*
X186335062Y-102720460D02*
X186224754Y-102757230D01*
X186040906Y-102757230D01*
X185967367Y-102720460D01*
X185930598Y-102683691D01*
X185893828Y-102610152D01*
X185893828Y-102536613D01*
X185930598Y-102463074D01*
X185967367Y-102426304D01*
X186040906Y-102389535D01*
X186187984Y-102352765D01*
X186261523Y-102315996D01*
X186298293Y-102279226D01*
X186335062Y-102205687D01*
X186335062Y-102132148D01*
X186298293Y-102058609D01*
X186261523Y-102021840D01*
X186187984Y-101985070D01*
X186004137Y-101985070D01*
X185893828Y-102021840D01*
X185636441Y-102242457D02*
X185489363Y-102757230D01*
X185342285Y-102389535D01*
X185195207Y-102757230D01*
X185048129Y-102242457D01*
X184753973Y-102757230D02*
X184753973Y-102242457D01*
X184753973Y-101985070D02*
X184790742Y-102021840D01*
X184753973Y-102058609D01*
X184717203Y-102021840D01*
X184753973Y-101985070D01*
X184753973Y-102058609D01*
X184496586Y-102242457D02*
X184202430Y-102242457D01*
X184386278Y-101985070D02*
X184386278Y-102646921D01*
X184349508Y-102720460D01*
X184275969Y-102757230D01*
X184202430Y-102757230D01*
X183614118Y-102720460D02*
X183687657Y-102757230D01*
X183834735Y-102757230D01*
X183908274Y-102720460D01*
X183945043Y-102683691D01*
X183981813Y-102610152D01*
X183981813Y-102389535D01*
X183945043Y-102315996D01*
X183908274Y-102279226D01*
X183834735Y-102242457D01*
X183687657Y-102242457D01*
X183614118Y-102279226D01*
X183283192Y-102757230D02*
X183283192Y-101985070D01*
X182952266Y-102757230D02*
X182952266Y-102352765D01*
X182989036Y-102279226D01*
X183062575Y-102242457D01*
X183172883Y-102242457D01*
X183246422Y-102279226D01*
X183283192Y-102315996D01*
X190195862Y-103632925D02*
X190085554Y-103669695D01*
X190048784Y-103706464D01*
X190012015Y-103780003D01*
X190012015Y-103890312D01*
X190048784Y-103963851D01*
X190085554Y-104000620D01*
X190159093Y-104037390D01*
X190453249Y-104037390D01*
X190453249Y-103265230D01*
X190195862Y-103265230D01*
X190122323Y-103302000D01*
X190085554Y-103338769D01*
X190048784Y-103412308D01*
X190048784Y-103485847D01*
X190085554Y-103559386D01*
X190122323Y-103596156D01*
X190195862Y-103632925D01*
X190453249Y-103632925D01*
X189681089Y-104037390D02*
X189681089Y-103522617D01*
X189681089Y-103669695D02*
X189644320Y-103596156D01*
X189607550Y-103559386D01*
X189534011Y-103522617D01*
X189460472Y-103522617D01*
X188908929Y-104000620D02*
X188982468Y-104037390D01*
X189129546Y-104037390D01*
X189203085Y-104000620D01*
X189239855Y-103927081D01*
X189239855Y-103632925D01*
X189203085Y-103559386D01*
X189129546Y-103522617D01*
X188982468Y-103522617D01*
X188908929Y-103559386D01*
X188872160Y-103632925D01*
X188872160Y-103706464D01*
X189239855Y-103780003D01*
X188210308Y-104037390D02*
X188210308Y-103632925D01*
X188247078Y-103559386D01*
X188320617Y-103522617D01*
X188467695Y-103522617D01*
X188541234Y-103559386D01*
X188210308Y-104000620D02*
X188283847Y-104037390D01*
X188467695Y-104037390D01*
X188541234Y-104000620D01*
X188578003Y-103927081D01*
X188578003Y-103853542D01*
X188541234Y-103780003D01*
X188467695Y-103743234D01*
X188283847Y-103743234D01*
X188210308Y-103706464D01*
X187842613Y-104037390D02*
X187842613Y-103265230D01*
X187769074Y-103743234D02*
X187548457Y-104037390D01*
X187548457Y-103522617D02*
X187842613Y-103816773D01*
X187107222Y-104037390D02*
X187180761Y-104000620D01*
X187217531Y-103963851D01*
X187254300Y-103890312D01*
X187254300Y-103669695D01*
X187217531Y-103596156D01*
X187180761Y-103559386D01*
X187107222Y-103522617D01*
X186996914Y-103522617D01*
X186923375Y-103559386D01*
X186886605Y-103596156D01*
X186849836Y-103669695D01*
X186849836Y-103890312D01*
X186886605Y-103963851D01*
X186923375Y-104000620D01*
X186996914Y-104037390D01*
X187107222Y-104037390D01*
X186187984Y-103522617D02*
X186187984Y-104037390D01*
X186518910Y-103522617D02*
X186518910Y-103927081D01*
X186482140Y-104000620D01*
X186408601Y-104037390D01*
X186298293Y-104037390D01*
X186224754Y-104000620D01*
X186187984Y-103963851D01*
X185930598Y-103522617D02*
X185636441Y-103522617D01*
X185820289Y-103265230D02*
X185820289Y-103927081D01*
X185783520Y-104000620D01*
X185709980Y-104037390D01*
X185636441Y-104037390D01*
X174197733Y-102757230D02*
X174197733Y-101985070D01*
X173756499Y-102757230D02*
X174087424Y-102315996D01*
X173756499Y-101985070D02*
X174197733Y-102426304D01*
X173094647Y-102757230D02*
X173094647Y-102352765D01*
X173131417Y-102279226D01*
X173204956Y-102242457D01*
X173352034Y-102242457D01*
X173425573Y-102279226D01*
X173094647Y-102720460D02*
X173168186Y-102757230D01*
X173352034Y-102757230D01*
X173425573Y-102720460D01*
X173462342Y-102646921D01*
X173462342Y-102573382D01*
X173425573Y-102499843D01*
X173352034Y-102463074D01*
X173168186Y-102463074D01*
X173094647Y-102426304D01*
X172726952Y-102757230D02*
X172726952Y-102242457D01*
X172726952Y-101985070D02*
X172763721Y-102021840D01*
X172726952Y-102058609D01*
X172690182Y-102021840D01*
X172726952Y-101985070D01*
X172726952Y-102058609D01*
X172248948Y-102757230D02*
X172322487Y-102720460D01*
X172359257Y-102646921D01*
X172359257Y-101985070D01*
X171954792Y-102757230D02*
X171954792Y-101985070D01*
X171623866Y-102757230D02*
X171623866Y-102352765D01*
X171660636Y-102279226D01*
X171734175Y-102242457D01*
X171844483Y-102242457D01*
X171918022Y-102279226D01*
X171954792Y-102315996D01*
X170226624Y-102683691D02*
X170263394Y-102720460D01*
X170373702Y-102757230D01*
X170447241Y-102757230D01*
X170557550Y-102720460D01*
X170631089Y-102646921D01*
X170667859Y-102573382D01*
X170704628Y-102426304D01*
X170704628Y-102315996D01*
X170667859Y-102168918D01*
X170631089Y-102095379D01*
X170557550Y-102021840D01*
X170447241Y-101985070D01*
X170373702Y-101985070D01*
X170263394Y-102021840D01*
X170226624Y-102058609D01*
X169895699Y-102757230D02*
X169895699Y-101985070D01*
X169564773Y-102757230D02*
X169564773Y-102352765D01*
X169601542Y-102279226D01*
X169675081Y-102242457D01*
X169785390Y-102242457D01*
X169858929Y-102279226D01*
X169895699Y-102315996D01*
X169086769Y-102757230D02*
X169160308Y-102720460D01*
X169197078Y-102683691D01*
X169233847Y-102610152D01*
X169233847Y-102389535D01*
X169197078Y-102315996D01*
X169160308Y-102279226D01*
X169086769Y-102242457D01*
X168976460Y-102242457D01*
X168902921Y-102279226D01*
X168866152Y-102315996D01*
X168829382Y-102389535D01*
X168829382Y-102610152D01*
X168866152Y-102683691D01*
X168902921Y-102720460D01*
X168976460Y-102757230D01*
X169086769Y-102757230D01*
X168167531Y-102720460D02*
X168241070Y-102757230D01*
X168388148Y-102757230D01*
X168461687Y-102720460D01*
X168498457Y-102683691D01*
X168535226Y-102610152D01*
X168535226Y-102389535D01*
X168498457Y-102315996D01*
X168461687Y-102279226D01*
X168388148Y-102242457D01*
X168241070Y-102242457D01*
X168167531Y-102279226D01*
X167285062Y-102720460D02*
X167174754Y-102757230D01*
X166990906Y-102757230D01*
X166917367Y-102720460D01*
X166880598Y-102683691D01*
X166843828Y-102610152D01*
X166843828Y-102536613D01*
X166880598Y-102463074D01*
X166917367Y-102426304D01*
X166990906Y-102389535D01*
X167137984Y-102352765D01*
X167211523Y-102315996D01*
X167248293Y-102279226D01*
X167285062Y-102205687D01*
X167285062Y-102132148D01*
X167248293Y-102058609D01*
X167211523Y-102021840D01*
X167137984Y-101985070D01*
X166954137Y-101985070D01*
X166843828Y-102021840D01*
X166586441Y-102242457D02*
X166439363Y-102757230D01*
X166292285Y-102389535D01*
X166145207Y-102757230D01*
X165998129Y-102242457D01*
X165703973Y-102757230D02*
X165703973Y-102242457D01*
X165703973Y-101985070D02*
X165740742Y-102021840D01*
X165703973Y-102058609D01*
X165667203Y-102021840D01*
X165703973Y-101985070D01*
X165703973Y-102058609D01*
X165446586Y-102242457D02*
X165152430Y-102242457D01*
X165336278Y-101985070D02*
X165336278Y-102646921D01*
X165299508Y-102720460D01*
X165225969Y-102757230D01*
X165152430Y-102757230D01*
X164564118Y-102720460D02*
X164637657Y-102757230D01*
X164784735Y-102757230D01*
X164858274Y-102720460D01*
X164895043Y-102683691D01*
X164931813Y-102610152D01*
X164931813Y-102389535D01*
X164895043Y-102315996D01*
X164858274Y-102279226D01*
X164784735Y-102242457D01*
X164637657Y-102242457D01*
X164564118Y-102279226D01*
X164233192Y-102757230D02*
X164233192Y-101985070D01*
X163902266Y-102757230D02*
X163902266Y-102352765D01*
X163939036Y-102279226D01*
X164012575Y-102242457D01*
X164122883Y-102242457D01*
X164196422Y-102279226D01*
X164233192Y-102315996D01*
X171145862Y-103632925D02*
X171035554Y-103669695D01*
X170998784Y-103706464D01*
X170962015Y-103780003D01*
X170962015Y-103890312D01*
X170998784Y-103963851D01*
X171035554Y-104000620D01*
X171109093Y-104037390D01*
X171403249Y-104037390D01*
X171403249Y-103265230D01*
X171145862Y-103265230D01*
X171072323Y-103302000D01*
X171035554Y-103338769D01*
X170998784Y-103412308D01*
X170998784Y-103485847D01*
X171035554Y-103559386D01*
X171072323Y-103596156D01*
X171145862Y-103632925D01*
X171403249Y-103632925D01*
X170631089Y-104037390D02*
X170631089Y-103522617D01*
X170631089Y-103669695D02*
X170594320Y-103596156D01*
X170557550Y-103559386D01*
X170484011Y-103522617D01*
X170410472Y-103522617D01*
X169858929Y-104000620D02*
X169932468Y-104037390D01*
X170079546Y-104037390D01*
X170153085Y-104000620D01*
X170189855Y-103927081D01*
X170189855Y-103632925D01*
X170153085Y-103559386D01*
X170079546Y-103522617D01*
X169932468Y-103522617D01*
X169858929Y-103559386D01*
X169822160Y-103632925D01*
X169822160Y-103706464D01*
X170189855Y-103780003D01*
X169160308Y-104037390D02*
X169160308Y-103632925D01*
X169197078Y-103559386D01*
X169270617Y-103522617D01*
X169417695Y-103522617D01*
X169491234Y-103559386D01*
X169160308Y-104000620D02*
X169233847Y-104037390D01*
X169417695Y-104037390D01*
X169491234Y-104000620D01*
X169528003Y-103927081D01*
X169528003Y-103853542D01*
X169491234Y-103780003D01*
X169417695Y-103743234D01*
X169233847Y-103743234D01*
X169160308Y-103706464D01*
X168792613Y-104037390D02*
X168792613Y-103265230D01*
X168719074Y-103743234D02*
X168498457Y-104037390D01*
X168498457Y-103522617D02*
X168792613Y-103816773D01*
X168057222Y-104037390D02*
X168130761Y-104000620D01*
X168167531Y-103963851D01*
X168204300Y-103890312D01*
X168204300Y-103669695D01*
X168167531Y-103596156D01*
X168130761Y-103559386D01*
X168057222Y-103522617D01*
X167946914Y-103522617D01*
X167873375Y-103559386D01*
X167836605Y-103596156D01*
X167799836Y-103669695D01*
X167799836Y-103890312D01*
X167836605Y-103963851D01*
X167873375Y-104000620D01*
X167946914Y-104037390D01*
X168057222Y-104037390D01*
X167137984Y-103522617D02*
X167137984Y-104037390D01*
X167468910Y-103522617D02*
X167468910Y-103927081D01*
X167432140Y-104000620D01*
X167358601Y-104037390D01*
X167248293Y-104037390D01*
X167174754Y-104000620D01*
X167137984Y-103963851D01*
X166880598Y-103522617D02*
X166586441Y-103522617D01*
X166770289Y-103265230D02*
X166770289Y-103927081D01*
X166733520Y-104000620D01*
X166659980Y-104037390D01*
X166586441Y-104037390D01*
D10*
X194064978Y-101390650D02*
X192778045Y-101390650D01*
X175014978Y-101390650D02*
X173728045Y-101390650D01*
D13*
X191791890Y-105907314D02*
X190688804Y-105907314D01*
X172741890Y-105907314D02*
X171638804Y-105907314D01*
D14*
X192102790Y-94919238D02*
X192102790Y-93954038D01*
X191872980Y-93954038D01*
X191735095Y-94000000D01*
X191643171Y-94091923D01*
X191597209Y-94183847D01*
X191551247Y-94367695D01*
X191551247Y-94505580D01*
X191597209Y-94689428D01*
X191643171Y-94781352D01*
X191735095Y-94873276D01*
X191872980Y-94919238D01*
X192102790Y-94919238D01*
X173052790Y-94919238D02*
X173052790Y-93954038D01*
X172822980Y-93954038D01*
X172685095Y-94000000D01*
X172593171Y-94091923D01*
X172547209Y-94183847D01*
X172501247Y-94367695D01*
X172501247Y-94505580D01*
X172547209Y-94689428D01*
X172593171Y-94781352D01*
X172685095Y-94873276D01*
X172822980Y-94919238D01*
X173052790Y-94919238D01*
D13*
X187572042Y-93524814D02*
X186468957Y-93524814D01*
X187020500Y-94076357D02*
X187020500Y-92973271D01*
X168522042Y-93524814D02*
X167418957Y-93524814D01*
X167970500Y-94076357D02*
X167970500Y-92973271D01*
D11*
X188898285Y-107181547D02*
X189587714Y-107181547D01*
X189243000Y-107181547D02*
X189243000Y-105975047D01*
X189357904Y-106147404D01*
X189472809Y-106262309D01*
X189587714Y-106319761D01*
X169848285Y-107181547D02*
X170537714Y-107181547D01*
X170193000Y-107181547D02*
X170193000Y-105975047D01*
X170307904Y-106147404D01*
X170422809Y-106262309D01*
X170537714Y-106319761D01*
X184135785Y-93973547D02*
X184825214Y-93973547D01*
X184480500Y-93973547D02*
X184480500Y-92767047D01*
X184595404Y-92939404D01*
X184710309Y-93054309D01*
X184825214Y-93111761D01*
X165085785Y-93973547D02*
X165775214Y-93973547D01*
X165430500Y-93973547D02*
X165430500Y-92767047D01*
X165545404Y-92939404D01*
X165660309Y-93054309D01*
X165775214Y-93111761D01*
D10*
X183104455Y-103930650D02*
X181817521Y-103930650D01*
X182460988Y-104574116D02*
X182460988Y-103287183D01*
X164054455Y-103930650D02*
X162767521Y-103930650D01*
X163410988Y-104574116D02*
X163410988Y-103287183D01*
D13*
X185257195Y-105183414D02*
X184154110Y-105183414D01*
X184705652Y-105734957D02*
X184705652Y-104631871D01*
X166207195Y-105183414D02*
X165104110Y-105183414D01*
X165655652Y-105734957D02*
X165655652Y-104631871D01*
D14*
X193389247Y-105542038D02*
X193710980Y-105082419D01*
X193940790Y-105542038D02*
X193940790Y-104576838D01*
X193573095Y-104576838D01*
X193481171Y-104622800D01*
X193435209Y-104668761D01*
X193389247Y-104760685D01*
X193389247Y-104898571D01*
X193435209Y-104990495D01*
X193481171Y-105036457D01*
X193573095Y-105082419D01*
X193940790Y-105082419D01*
X174339247Y-105542038D02*
X174660980Y-105082419D01*
X174890790Y-105542038D02*
X174890790Y-104576838D01*
X174523095Y-104576838D01*
X174431171Y-104622800D01*
X174385209Y-104668761D01*
X174339247Y-104760685D01*
X174339247Y-104898571D01*
X174385209Y-104990495D01*
X174431171Y-105036457D01*
X174523095Y-105082419D01*
X174890790Y-105082419D01*
D13*
X182809542Y-93524814D02*
X181706457Y-93524814D01*
X182258000Y-94076357D02*
X182258000Y-92973271D01*
X163759542Y-93524814D02*
X162656457Y-93524814D01*
X163208000Y-94076357D02*
X163208000Y-92973271D01*
X187572042Y-106872514D02*
X186468957Y-106872514D01*
X187020500Y-107424057D02*
X187020500Y-106320971D01*
X168522042Y-106872514D02*
X167418957Y-106872514D01*
X167970500Y-107424057D02*
X167970500Y-106320971D01*
D11*
X179373285Y-93973547D02*
X180062714Y-93973547D01*
X179718000Y-93973547D02*
X179718000Y-92767047D01*
X179832904Y-92939404D01*
X179947809Y-93054309D01*
X180062714Y-93111761D01*
X160323285Y-93973547D02*
X161012714Y-93973547D01*
X160668000Y-93973547D02*
X160668000Y-92767047D01*
X160782904Y-92939404D01*
X160897809Y-93054309D01*
X161012714Y-93111761D01*
D13*
X192334542Y-106872514D02*
X191231457Y-106872514D01*
X191783000Y-107424057D02*
X191783000Y-106320971D01*
X173284542Y-106872514D02*
X172181457Y-106872514D01*
X172733000Y-107424057D02*
X172733000Y-106320971D01*
D11*
X184135785Y-107181547D02*
X184825214Y-107181547D01*
X184480500Y-107181547D02*
X184480500Y-105975047D01*
X184595404Y-106147404D01*
X184710309Y-106262309D01*
X184825214Y-106319761D01*
X165085785Y-107181547D02*
X165775214Y-107181547D01*
X165430500Y-107181547D02*
X165430500Y-105975047D01*
X165545404Y-106147404D01*
X165660309Y-106262309D01*
X165775214Y-106319761D01*
D10*
X183104455Y-101390650D02*
X181817521Y-101390650D01*
X164054455Y-101390650D02*
X162767521Y-101390650D01*
D11*
X181595634Y-99275797D02*
X182285063Y-99275797D01*
X181940348Y-99275797D02*
X181940348Y-98069297D01*
X182055253Y-98241654D01*
X182170158Y-98356559D01*
X182285063Y-98414011D01*
X162545634Y-99275797D02*
X163235063Y-99275797D01*
X162890348Y-99275797D02*
X162890348Y-98069297D01*
X163005253Y-98241654D01*
X163120158Y-98356559D01*
X163235063Y-98414011D01*
X182285063Y-95644202D02*
X182227610Y-95586750D01*
X182112705Y-95529297D01*
X181825444Y-95529297D01*
X181710539Y-95586750D01*
X181653086Y-95644202D01*
X181595634Y-95759107D01*
X181595634Y-95874011D01*
X181653086Y-96046369D01*
X182342515Y-96735797D01*
X181595634Y-96735797D01*
X163235063Y-95644202D02*
X163177610Y-95586750D01*
X163062705Y-95529297D01*
X162775444Y-95529297D01*
X162660539Y-95586750D01*
X162603086Y-95644202D01*
X162545634Y-95759107D01*
X162545634Y-95874011D01*
X162603086Y-96046369D01*
X163292515Y-96735797D01*
X162545634Y-96735797D01*
D15*
X193815000Y-92126000D02*
X193815000Y-91364000D01*
X174765000Y-92126000D02*
X174765000Y-91364000D01*
D11*
X144185063Y-95644202D02*
X144127610Y-95586750D01*
X144012705Y-95529297D01*
X143725444Y-95529297D01*
X143610539Y-95586750D01*
X143553086Y-95644202D01*
X143495634Y-95759107D01*
X143495634Y-95874011D01*
X143553086Y-96046369D01*
X144242515Y-96735797D01*
X143495634Y-96735797D01*
X143495634Y-99275797D02*
X144185063Y-99275797D01*
X143840348Y-99275797D02*
X143840348Y-98069297D01*
X143955253Y-98241654D01*
X144070158Y-98356559D01*
X144185063Y-98414011D01*
D10*
X145004455Y-101390650D02*
X143717521Y-101390650D01*
X145004455Y-103930650D02*
X143717521Y-103930650D01*
X144360988Y-104574116D02*
X144360988Y-103287183D01*
D11*
X156186865Y-95644202D02*
X156129413Y-95586750D01*
X156014508Y-95529297D01*
X155727246Y-95529297D01*
X155612341Y-95586750D01*
X155554889Y-95644202D01*
X155497436Y-95759107D01*
X155497436Y-95874011D01*
X155554889Y-96046369D01*
X156244317Y-96735797D01*
X155497436Y-96735797D01*
X155497436Y-99275797D02*
X156186865Y-99275797D01*
X155842151Y-99275797D02*
X155842151Y-98069297D01*
X155957055Y-98241654D01*
X156071960Y-98356559D01*
X156186865Y-98414011D01*
D10*
X155964978Y-101390650D02*
X154678045Y-101390650D01*
X155964978Y-103930650D02*
X154678045Y-103930650D01*
X155321511Y-104574116D02*
X155321511Y-103287183D01*
D11*
X146035785Y-107181547D02*
X146725214Y-107181547D01*
X146380500Y-107181547D02*
X146380500Y-105975047D01*
X146495404Y-106147404D01*
X146610309Y-106262309D01*
X146725214Y-106319761D01*
D13*
X149472042Y-106872514D02*
X148368957Y-106872514D01*
X148920500Y-107424057D02*
X148920500Y-106320971D01*
D11*
X150798285Y-107181547D02*
X151487714Y-107181547D01*
X151143000Y-107181547D02*
X151143000Y-105975047D01*
X151257904Y-106147404D01*
X151372809Y-106262309D01*
X151487714Y-106319761D01*
D13*
X154234542Y-106872514D02*
X153131457Y-106872514D01*
X153683000Y-107424057D02*
X153683000Y-106320971D01*
D11*
X141273285Y-93973547D02*
X141962714Y-93973547D01*
X141618000Y-93973547D02*
X141618000Y-92767047D01*
X141732904Y-92939404D01*
X141847809Y-93054309D01*
X141962714Y-93111761D01*
D13*
X144709542Y-93524814D02*
X143606457Y-93524814D01*
X144158000Y-94076357D02*
X144158000Y-92973271D01*
D11*
X146035785Y-93973547D02*
X146725214Y-93973547D01*
X146380500Y-93973547D02*
X146380500Y-92767047D01*
X146495404Y-92939404D01*
X146610309Y-93054309D01*
X146725214Y-93111761D01*
D13*
X149472042Y-93524814D02*
X148368957Y-93524814D01*
X148920500Y-94076357D02*
X148920500Y-92973271D01*
D12*
X155147733Y-102757230D02*
X155147733Y-101985070D01*
X154706499Y-102757230D02*
X155037424Y-102315996D01*
X154706499Y-101985070D02*
X155147733Y-102426304D01*
X154044647Y-102757230D02*
X154044647Y-102352765D01*
X154081417Y-102279226D01*
X154154956Y-102242457D01*
X154302034Y-102242457D01*
X154375573Y-102279226D01*
X154044647Y-102720460D02*
X154118186Y-102757230D01*
X154302034Y-102757230D01*
X154375573Y-102720460D01*
X154412342Y-102646921D01*
X154412342Y-102573382D01*
X154375573Y-102499843D01*
X154302034Y-102463074D01*
X154118186Y-102463074D01*
X154044647Y-102426304D01*
X153676952Y-102757230D02*
X153676952Y-102242457D01*
X153676952Y-101985070D02*
X153713721Y-102021840D01*
X153676952Y-102058609D01*
X153640182Y-102021840D01*
X153676952Y-101985070D01*
X153676952Y-102058609D01*
X153198948Y-102757230D02*
X153272487Y-102720460D01*
X153309257Y-102646921D01*
X153309257Y-101985070D01*
X152904792Y-102757230D02*
X152904792Y-101985070D01*
X152573866Y-102757230D02*
X152573866Y-102352765D01*
X152610636Y-102279226D01*
X152684175Y-102242457D01*
X152794483Y-102242457D01*
X152868022Y-102279226D01*
X152904792Y-102315996D01*
X151176624Y-102683691D02*
X151213394Y-102720460D01*
X151323702Y-102757230D01*
X151397241Y-102757230D01*
X151507550Y-102720460D01*
X151581089Y-102646921D01*
X151617859Y-102573382D01*
X151654628Y-102426304D01*
X151654628Y-102315996D01*
X151617859Y-102168918D01*
X151581089Y-102095379D01*
X151507550Y-102021840D01*
X151397241Y-101985070D01*
X151323702Y-101985070D01*
X151213394Y-102021840D01*
X151176624Y-102058609D01*
X150845699Y-102757230D02*
X150845699Y-101985070D01*
X150514773Y-102757230D02*
X150514773Y-102352765D01*
X150551542Y-102279226D01*
X150625081Y-102242457D01*
X150735390Y-102242457D01*
X150808929Y-102279226D01*
X150845699Y-102315996D01*
X150036769Y-102757230D02*
X150110308Y-102720460D01*
X150147078Y-102683691D01*
X150183847Y-102610152D01*
X150183847Y-102389535D01*
X150147078Y-102315996D01*
X150110308Y-102279226D01*
X150036769Y-102242457D01*
X149926460Y-102242457D01*
X149852921Y-102279226D01*
X149816152Y-102315996D01*
X149779382Y-102389535D01*
X149779382Y-102610152D01*
X149816152Y-102683691D01*
X149852921Y-102720460D01*
X149926460Y-102757230D01*
X150036769Y-102757230D01*
X149117531Y-102720460D02*
X149191070Y-102757230D01*
X149338148Y-102757230D01*
X149411687Y-102720460D01*
X149448457Y-102683691D01*
X149485226Y-102610152D01*
X149485226Y-102389535D01*
X149448457Y-102315996D01*
X149411687Y-102279226D01*
X149338148Y-102242457D01*
X149191070Y-102242457D01*
X149117531Y-102279226D01*
X148235062Y-102720460D02*
X148124754Y-102757230D01*
X147940906Y-102757230D01*
X147867367Y-102720460D01*
X147830598Y-102683691D01*
X147793828Y-102610152D01*
X147793828Y-102536613D01*
X147830598Y-102463074D01*
X147867367Y-102426304D01*
X147940906Y-102389535D01*
X148087984Y-102352765D01*
X148161523Y-102315996D01*
X148198293Y-102279226D01*
X148235062Y-102205687D01*
X148235062Y-102132148D01*
X148198293Y-102058609D01*
X148161523Y-102021840D01*
X148087984Y-101985070D01*
X147904137Y-101985070D01*
X147793828Y-102021840D01*
X147536441Y-102242457D02*
X147389363Y-102757230D01*
X147242285Y-102389535D01*
X147095207Y-102757230D01*
X146948129Y-102242457D01*
X146653973Y-102757230D02*
X146653973Y-102242457D01*
X146653973Y-101985070D02*
X146690742Y-102021840D01*
X146653973Y-102058609D01*
X146617203Y-102021840D01*
X146653973Y-101985070D01*
X146653973Y-102058609D01*
X146396586Y-102242457D02*
X146102430Y-102242457D01*
X146286278Y-101985070D02*
X146286278Y-102646921D01*
X146249508Y-102720460D01*
X146175969Y-102757230D01*
X146102430Y-102757230D01*
X145514118Y-102720460D02*
X145587657Y-102757230D01*
X145734735Y-102757230D01*
X145808274Y-102720460D01*
X145845043Y-102683691D01*
X145881813Y-102610152D01*
X145881813Y-102389535D01*
X145845043Y-102315996D01*
X145808274Y-102279226D01*
X145734735Y-102242457D01*
X145587657Y-102242457D01*
X145514118Y-102279226D01*
X145183192Y-102757230D02*
X145183192Y-101985070D01*
X144852266Y-102757230D02*
X144852266Y-102352765D01*
X144889036Y-102279226D01*
X144962575Y-102242457D01*
X145072883Y-102242457D01*
X145146422Y-102279226D01*
X145183192Y-102315996D01*
X152095862Y-103632925D02*
X151985554Y-103669695D01*
X151948784Y-103706464D01*
X151912015Y-103780003D01*
X151912015Y-103890312D01*
X151948784Y-103963851D01*
X151985554Y-104000620D01*
X152059093Y-104037390D01*
X152353249Y-104037390D01*
X152353249Y-103265230D01*
X152095862Y-103265230D01*
X152022323Y-103302000D01*
X151985554Y-103338769D01*
X151948784Y-103412308D01*
X151948784Y-103485847D01*
X151985554Y-103559386D01*
X152022323Y-103596156D01*
X152095862Y-103632925D01*
X152353249Y-103632925D01*
X151581089Y-104037390D02*
X151581089Y-103522617D01*
X151581089Y-103669695D02*
X151544320Y-103596156D01*
X151507550Y-103559386D01*
X151434011Y-103522617D01*
X151360472Y-103522617D01*
X150808929Y-104000620D02*
X150882468Y-104037390D01*
X151029546Y-104037390D01*
X151103085Y-104000620D01*
X151139855Y-103927081D01*
X151139855Y-103632925D01*
X151103085Y-103559386D01*
X151029546Y-103522617D01*
X150882468Y-103522617D01*
X150808929Y-103559386D01*
X150772160Y-103632925D01*
X150772160Y-103706464D01*
X151139855Y-103780003D01*
X150110308Y-104037390D02*
X150110308Y-103632925D01*
X150147078Y-103559386D01*
X150220617Y-103522617D01*
X150367695Y-103522617D01*
X150441234Y-103559386D01*
X150110308Y-104000620D02*
X150183847Y-104037390D01*
X150367695Y-104037390D01*
X150441234Y-104000620D01*
X150478003Y-103927081D01*
X150478003Y-103853542D01*
X150441234Y-103780003D01*
X150367695Y-103743234D01*
X150183847Y-103743234D01*
X150110308Y-103706464D01*
X149742613Y-104037390D02*
X149742613Y-103265230D01*
X149669074Y-103743234D02*
X149448457Y-104037390D01*
X149448457Y-103522617D02*
X149742613Y-103816773D01*
X149007222Y-104037390D02*
X149080761Y-104000620D01*
X149117531Y-103963851D01*
X149154300Y-103890312D01*
X149154300Y-103669695D01*
X149117531Y-103596156D01*
X149080761Y-103559386D01*
X149007222Y-103522617D01*
X148896914Y-103522617D01*
X148823375Y-103559386D01*
X148786605Y-103596156D01*
X148749836Y-103669695D01*
X148749836Y-103890312D01*
X148786605Y-103963851D01*
X148823375Y-104000620D01*
X148896914Y-104037390D01*
X149007222Y-104037390D01*
X148087984Y-103522617D02*
X148087984Y-104037390D01*
X148418910Y-103522617D02*
X148418910Y-103927081D01*
X148382140Y-104000620D01*
X148308601Y-104037390D01*
X148198293Y-104037390D01*
X148124754Y-104000620D01*
X148087984Y-103963851D01*
X147830598Y-103522617D02*
X147536441Y-103522617D01*
X147720289Y-103265230D02*
X147720289Y-103927081D01*
X147683520Y-104000620D01*
X147609980Y-104037390D01*
X147536441Y-104037390D01*
D14*
X155289247Y-105542038D02*
X155610980Y-105082419D01*
X155840790Y-105542038D02*
X155840790Y-104576838D01*
X155473095Y-104576838D01*
X155381171Y-104622800D01*
X155335209Y-104668761D01*
X155289247Y-104760685D01*
X155289247Y-104898571D01*
X155335209Y-104990495D01*
X155381171Y-105036457D01*
X155473095Y-105082419D01*
X155840790Y-105082419D01*
X154002790Y-94919238D02*
X154002790Y-93954038D01*
X153772980Y-93954038D01*
X153635095Y-94000000D01*
X153543171Y-94091923D01*
X153497209Y-94183847D01*
X153451247Y-94367695D01*
X153451247Y-94505580D01*
X153497209Y-94689428D01*
X153543171Y-94781352D01*
X153635095Y-94873276D01*
X153772980Y-94919238D01*
X154002790Y-94919238D01*
D15*
X155715000Y-92126000D02*
X155715000Y-91364000D01*
D13*
X147157195Y-105183414D02*
X146054110Y-105183414D01*
X146605652Y-105734957D02*
X146605652Y-104631871D01*
X153691890Y-105907314D02*
X152588804Y-105907314D01*
D16*
G36*
X190210000Y-97383000D02*
G01*
X190210000Y-97473000D01*
X190220000Y-97503000D01*
X190230000Y-97523000D01*
X190260000Y-97553000D01*
X190290000Y-97563000D01*
X190320000Y-97563000D01*
X190400000Y-97543000D01*
X190440000Y-97523000D01*
X190470000Y-97503000D01*
X190510000Y-97473000D01*
X190570000Y-97413000D01*
X190610000Y-97353000D01*
X190620000Y-97313000D01*
X190620000Y-97253000D01*
X190610000Y-97223000D01*
X190600000Y-97203000D01*
X190580000Y-97173000D01*
X190540000Y-97143000D01*
X190500000Y-97123000D01*
X190450000Y-97113000D01*
X190410000Y-97103000D01*
X190350000Y-97103000D01*
X190330000Y-97113000D01*
X190320000Y-97113000D01*
X190330000Y-97103000D01*
X190370000Y-97073000D01*
X190510000Y-97003000D01*
X190600000Y-96983000D01*
X190700000Y-96983000D01*
X190810000Y-97003000D01*
X190920000Y-97063000D01*
X191010000Y-97133000D01*
X191060000Y-97213000D01*
X191090000Y-97303000D01*
X191090000Y-97383000D01*
X191070000Y-97473000D01*
X191020000Y-97563000D01*
X190950000Y-97643000D01*
X190870000Y-97733000D01*
X190800000Y-97803000D01*
X190770000Y-97883000D01*
X190770000Y-97953000D01*
X190790000Y-98013000D01*
X190830000Y-98063000D01*
X190890000Y-98103000D01*
X190970000Y-98123000D01*
X191050000Y-98123000D01*
X191100000Y-98113000D01*
X191150000Y-98093000D01*
X191210000Y-98033000D01*
X191230000Y-98003000D01*
X191240000Y-97973000D01*
X191240000Y-97933000D01*
X191230000Y-97903000D01*
X191170000Y-97843000D01*
X191140000Y-97833000D01*
X191100000Y-97813000D01*
X191090000Y-97803000D01*
X191130000Y-97783000D01*
X191250000Y-97783000D01*
X191310000Y-97793000D01*
X191360000Y-97803000D01*
X191410000Y-97823000D01*
X191450000Y-97853000D01*
X191500000Y-97893000D01*
X191560000Y-97993000D01*
X191580000Y-98063000D01*
X191590000Y-98143000D01*
X191590000Y-99513000D01*
X191540000Y-99463000D01*
X191510000Y-99413000D01*
X191460000Y-99363000D01*
X191410000Y-99303000D01*
X191290000Y-99183000D01*
X191170000Y-99043000D01*
X191070000Y-98943000D01*
X190970000Y-98883000D01*
X190910000Y-98873000D01*
X190720000Y-98873000D01*
X190600000Y-98853000D01*
X190490000Y-98823000D01*
X190390000Y-98783000D01*
X190290000Y-98723000D01*
X190210000Y-98653000D01*
X190130000Y-98573000D01*
X190060000Y-98483000D01*
X189960000Y-98303000D01*
X189910000Y-98113000D01*
X189900000Y-97943000D01*
X189930000Y-97783000D01*
X189980000Y-97633000D01*
X190050000Y-97523000D01*
X190130000Y-97433000D01*
X190210000Y-97383000D01*
G37*
G36*
X171160000Y-97383000D02*
G01*
X171160000Y-97473000D01*
X171170000Y-97503000D01*
X171180000Y-97523000D01*
X171210000Y-97553000D01*
X171240000Y-97563000D01*
X171270000Y-97563000D01*
X171350000Y-97543000D01*
X171390000Y-97523000D01*
X171420000Y-97503000D01*
X171460000Y-97473000D01*
X171520000Y-97413000D01*
X171560000Y-97353000D01*
X171570000Y-97313000D01*
X171570000Y-97253000D01*
X171560000Y-97223000D01*
X171550000Y-97203000D01*
X171530000Y-97173000D01*
X171490000Y-97143000D01*
X171450000Y-97123000D01*
X171400000Y-97113000D01*
X171360000Y-97103000D01*
X171300000Y-97103000D01*
X171280000Y-97113000D01*
X171270000Y-97113000D01*
X171280000Y-97103000D01*
X171320000Y-97073000D01*
X171460000Y-97003000D01*
X171550000Y-96983000D01*
X171650000Y-96983000D01*
X171760000Y-97003000D01*
X171870000Y-97063000D01*
X171960000Y-97133000D01*
X172010000Y-97213000D01*
X172040000Y-97303000D01*
X172040000Y-97383000D01*
X172020000Y-97473000D01*
X171970000Y-97563000D01*
X171900000Y-97643000D01*
X171820000Y-97733000D01*
X171750000Y-97803000D01*
X171720000Y-97883000D01*
X171720000Y-97953000D01*
X171740000Y-98013000D01*
X171780000Y-98063000D01*
X171840000Y-98103000D01*
X171920000Y-98123000D01*
X172000000Y-98123000D01*
X172050000Y-98113000D01*
X172100000Y-98093000D01*
X172160000Y-98033000D01*
X172180000Y-98003000D01*
X172190000Y-97973000D01*
X172190000Y-97933000D01*
X172180000Y-97903000D01*
X172120000Y-97843000D01*
X172090000Y-97833000D01*
X172050000Y-97813000D01*
X172040000Y-97803000D01*
X172080000Y-97783000D01*
X172200000Y-97783000D01*
X172260000Y-97793000D01*
X172310000Y-97803000D01*
X172360000Y-97823000D01*
X172400000Y-97853000D01*
X172450000Y-97893000D01*
X172510000Y-97993000D01*
X172530000Y-98063000D01*
X172540000Y-98143000D01*
X172540000Y-99513000D01*
X172490000Y-99463000D01*
X172460000Y-99413000D01*
X172410000Y-99363000D01*
X172360000Y-99303000D01*
X172240000Y-99183000D01*
X172120000Y-99043000D01*
X172020000Y-98943000D01*
X171920000Y-98883000D01*
X171860000Y-98873000D01*
X171670000Y-98873000D01*
X171550000Y-98853000D01*
X171440000Y-98823000D01*
X171340000Y-98783000D01*
X171240000Y-98723000D01*
X171160000Y-98653000D01*
X171080000Y-98573000D01*
X171010000Y-98483000D01*
X170910000Y-98303000D01*
X170860000Y-98113000D01*
X170850000Y-97943000D01*
X170880000Y-97783000D01*
X170930000Y-97633000D01*
X171000000Y-97523000D01*
X171080000Y-97433000D01*
X171160000Y-97383000D01*
G37*
G36*
X182180800Y-107239300D02*
G01*
X182029000Y-107161100D01*
X181652000Y-107468500D01*
X181393500Y-107210000D01*
X181700900Y-106833000D01*
X181570600Y-106518500D01*
X181086700Y-106469300D01*
X181086700Y-106103700D01*
X181570600Y-106054500D01*
X181700900Y-105740000D01*
X181393500Y-105363000D01*
X181652000Y-105104500D01*
X182029000Y-105411900D01*
X182180836Y-105333683D01*
X182343500Y-105281600D01*
X182392700Y-104797700D01*
X182758300Y-104797700D01*
X182807500Y-105281600D01*
X183122000Y-105411900D01*
X183499000Y-105104500D01*
X183757500Y-105363000D01*
X183450100Y-105740000D01*
X183580400Y-106054500D01*
X184064300Y-106103700D01*
X184064300Y-106469300D01*
X183580400Y-106518500D01*
X183450100Y-106833000D01*
X183757500Y-107210000D01*
X183499000Y-107468500D01*
X183122000Y-107161100D01*
X183047721Y-107203347D01*
X182970200Y-107239300D01*
X182754900Y-106719600D01*
X182754899Y-106719600D01*
X182907000Y-106617993D01*
X183044300Y-106286500D01*
X183022139Y-106144179D01*
X182957809Y-106015307D01*
X182857385Y-105912053D01*
X182730349Y-105844167D01*
X182588699Y-105818061D01*
X182445809Y-105836198D01*
X182315174Y-105896867D01*
X182209128Y-105994339D01*
X182137686Y-106119409D01*
X182107594Y-106260266D01*
X182121694Y-106403611D01*
X182178654Y-106535906D01*
X182273095Y-106644659D01*
X182396100Y-106719600D01*
X182180800Y-107239300D01*
G37*
G36*
X163130800Y-107239300D02*
G01*
X162979000Y-107161100D01*
X162602000Y-107468500D01*
X162343500Y-107210000D01*
X162650900Y-106833000D01*
X162520600Y-106518500D01*
X162036700Y-106469300D01*
X162036700Y-106103700D01*
X162520600Y-106054500D01*
X162650900Y-105740000D01*
X162343500Y-105363000D01*
X162602000Y-105104500D01*
X162979000Y-105411900D01*
X163130836Y-105333683D01*
X163293500Y-105281600D01*
X163342700Y-104797700D01*
X163708300Y-104797700D01*
X163757500Y-105281600D01*
X164072000Y-105411900D01*
X164449000Y-105104500D01*
X164707500Y-105363000D01*
X164400100Y-105740000D01*
X164530400Y-106054500D01*
X165014300Y-106103700D01*
X165014300Y-106469300D01*
X164530400Y-106518500D01*
X164400100Y-106833000D01*
X164707500Y-107210000D01*
X164449000Y-107468500D01*
X164072000Y-107161100D01*
X163997721Y-107203347D01*
X163920200Y-107239300D01*
X163704900Y-106719600D01*
X163704899Y-106719600D01*
X163857000Y-106617993D01*
X163994300Y-106286500D01*
X163972139Y-106144179D01*
X163907809Y-106015307D01*
X163807385Y-105912053D01*
X163680349Y-105844167D01*
X163538699Y-105818061D01*
X163395809Y-105836198D01*
X163265174Y-105896867D01*
X163159128Y-105994339D01*
X163087686Y-106119409D01*
X163057594Y-106260266D01*
X163071694Y-106403611D01*
X163128654Y-106535906D01*
X163223095Y-106644659D01*
X163346100Y-106719600D01*
X163130800Y-107239300D01*
G37*
G36*
X152110000Y-97383000D02*
G01*
X152110000Y-97473000D01*
X152120000Y-97503000D01*
X152130000Y-97523000D01*
X152160000Y-97553000D01*
X152190000Y-97563000D01*
X152220000Y-97563000D01*
X152300000Y-97543000D01*
X152340000Y-97523000D01*
X152370000Y-97503000D01*
X152410000Y-97473000D01*
X152470000Y-97413000D01*
X152510000Y-97353000D01*
X152520000Y-97313000D01*
X152520000Y-97253000D01*
X152510000Y-97223000D01*
X152500000Y-97203000D01*
X152480000Y-97173000D01*
X152440000Y-97143000D01*
X152400000Y-97123000D01*
X152350000Y-97113000D01*
X152310000Y-97103000D01*
X152250000Y-97103000D01*
X152230000Y-97113000D01*
X152220000Y-97113000D01*
X152230000Y-97103000D01*
X152270000Y-97073000D01*
X152410000Y-97003000D01*
X152500000Y-96983000D01*
X152600000Y-96983000D01*
X152710000Y-97003000D01*
X152820000Y-97063000D01*
X152910000Y-97133000D01*
X152960000Y-97213000D01*
X152990000Y-97303000D01*
X152990000Y-97383000D01*
X152970000Y-97473000D01*
X152920000Y-97563000D01*
X152850000Y-97643000D01*
X152770000Y-97733000D01*
X152700000Y-97803000D01*
X152670000Y-97883000D01*
X152670000Y-97953000D01*
X152690000Y-98013000D01*
X152730000Y-98063000D01*
X152790000Y-98103000D01*
X152870000Y-98123000D01*
X152950000Y-98123000D01*
X153000000Y-98113000D01*
X153050000Y-98093000D01*
X153110000Y-98033000D01*
X153130000Y-98003000D01*
X153140000Y-97973000D01*
X153140000Y-97933000D01*
X153130000Y-97903000D01*
X153070000Y-97843000D01*
X153040000Y-97833000D01*
X153000000Y-97813000D01*
X152990000Y-97803000D01*
X153030000Y-97783000D01*
X153150000Y-97783000D01*
X153210000Y-97793000D01*
X153260000Y-97803000D01*
X153310000Y-97823000D01*
X153350000Y-97853000D01*
X153400000Y-97893000D01*
X153460000Y-97993000D01*
X153480000Y-98063000D01*
X153490000Y-98143000D01*
X153490000Y-99513000D01*
X153440000Y-99463000D01*
X153410000Y-99413000D01*
X153360000Y-99363000D01*
X153310000Y-99303000D01*
X153190000Y-99183000D01*
X153070000Y-99043000D01*
X152970000Y-98943000D01*
X152870000Y-98883000D01*
X152810000Y-98873000D01*
X152620000Y-98873000D01*
X152500000Y-98853000D01*
X152390000Y-98823000D01*
X152290000Y-98783000D01*
X152190000Y-98723000D01*
X152110000Y-98653000D01*
X152030000Y-98573000D01*
X151960000Y-98483000D01*
X151860000Y-98303000D01*
X151810000Y-98113000D01*
X151800000Y-97943000D01*
X151830000Y-97783000D01*
X151880000Y-97633000D01*
X151950000Y-97523000D01*
X152030000Y-97433000D01*
X152110000Y-97383000D01*
G37*
G36*
X144080800Y-107239300D02*
G01*
X143929000Y-107161100D01*
X143552000Y-107468500D01*
X143293500Y-107210000D01*
X143600900Y-106833000D01*
X143470600Y-106518500D01*
X142986700Y-106469300D01*
X142986700Y-106103700D01*
X143470600Y-106054500D01*
X143600900Y-105740000D01*
X143293500Y-105363000D01*
X143552000Y-105104500D01*
X143929000Y-105411900D01*
X144080836Y-105333683D01*
X144243500Y-105281600D01*
X144292700Y-104797700D01*
X144658300Y-104797700D01*
X144707500Y-105281600D01*
X145022000Y-105411900D01*
X145399000Y-105104500D01*
X145657500Y-105363000D01*
X145350100Y-105740000D01*
X145480400Y-106054500D01*
X145964300Y-106103700D01*
X145964300Y-106469300D01*
X145480400Y-106518500D01*
X145350100Y-106833000D01*
X145657500Y-107210000D01*
X145399000Y-107468500D01*
X145022000Y-107161100D01*
X144947721Y-107203347D01*
X144870200Y-107239300D01*
X144654900Y-106719600D01*
X144654899Y-106719600D01*
X144807000Y-106617993D01*
X144944300Y-106286500D01*
X144922139Y-106144179D01*
X144857809Y-106015307D01*
X144757385Y-105912053D01*
X144630349Y-105844167D01*
X144488699Y-105818061D01*
X144345809Y-105836198D01*
X144215174Y-105896867D01*
X144109128Y-105994339D01*
X144037686Y-106119409D01*
X144007594Y-106260266D01*
X144021694Y-106403611D01*
X144078654Y-106535906D01*
X144173095Y-106644659D01*
X144296100Y-106719600D01*
X144080800Y-107239300D01*
G37*
M02*
