G04 #@! TF.GenerationSoftware,KiCad,Pcbnew,(5.1.2)-1*
G04 #@! TF.CreationDate,2019-10-23T14:11:38-07:00*
G04 #@! TF.ProjectId,SparkFun-Cherry-MX-Switch-Breakout,53706172-6b46-4756-9e2d-436865727279,rev?*
G04 #@! TF.SameCoordinates,Original*
G04 #@! TF.FileFunction,Copper,L1,Top*
G04 #@! TF.FilePolarity,Positive*
%FSLAX46Y46*%
G04 Gerber Fmt 4.6, Leading zero omitted, Abs format (unit mm)*
G04 Created by KiCad (PCBNEW (5.1.2)-1) date 2019-10-23 14:11:38*
%MOMM*%
%LPD*%
G04 APERTURE LIST*
%ADD10C,2.400000*%
%ADD11C,2.032000*%
%ADD12C,1.879600*%
%ADD13C,0.800000*%
%ADD14C,0.254000*%
%ADD15C,0.250000*%
G04 APERTURE END LIST*
D10*
X155000000Y-96200000D03*
X150000000Y-94100000D03*
D11*
X151270000Y-105080000D03*
X148730000Y-105080000D03*
D12*
X158209551Y-106458949D03*
X156413500Y-108255000D03*
X154445000Y-91745000D03*
X151905000Y-91745000D03*
X142380000Y-103810000D03*
X142380000Y-101270000D03*
X142380000Y-98730000D03*
X142380000Y-96190000D03*
X157620000Y-103810000D03*
X157620000Y-101270000D03*
X157620000Y-98730000D03*
X157620000Y-96190000D03*
X144285000Y-91745000D03*
X141745000Y-91745000D03*
X153810000Y-108255000D03*
X151270000Y-108255000D03*
X149047500Y-91745000D03*
X146507500Y-91745000D03*
X149047500Y-108255000D03*
X146507500Y-108255000D03*
D13*
X146277001Y-97972999D03*
D14*
X141745000Y-91745000D02*
X143015000Y-93015000D01*
X146507500Y-91745000D02*
X145237500Y-93015000D01*
X145237500Y-93015000D02*
X143015000Y-93015000D01*
X143137001Y-97972999D02*
X142380000Y-98730000D01*
X150972961Y-97972999D02*
X146277001Y-97972999D01*
X151499962Y-98500000D02*
X150972961Y-97972999D01*
X157620000Y-98730000D02*
X157390000Y-98500000D01*
X157390000Y-98500000D02*
X151499962Y-98500000D01*
X146277001Y-97972999D02*
X143137001Y-97972999D01*
D15*
X146507500Y-92304556D02*
X146507500Y-91745000D01*
X148302944Y-94100000D02*
X146507500Y-92304556D01*
X150000000Y-94100000D02*
X148302944Y-94100000D01*
D14*
X142380000Y-101270000D02*
X147460000Y-101270000D01*
X147460000Y-101270000D02*
X151270000Y-105080000D01*
X151270000Y-105080000D02*
X153810000Y-105080000D01*
X153810000Y-105080000D02*
X157620000Y-101270000D01*
X142380000Y-103810000D02*
X144602500Y-103810000D01*
X144602500Y-103810000D02*
X149047500Y-108255000D01*
X149047500Y-108255000D02*
X150317500Y-106985000D01*
X150317500Y-106985000D02*
X153810000Y-106985000D01*
X153810000Y-108255000D02*
X153810000Y-106985000D01*
X153810000Y-106985000D02*
X155715000Y-105080000D01*
X155715000Y-105080000D02*
X156350000Y-105080000D01*
X156350000Y-105080000D02*
X157620000Y-103810000D01*
X155810000Y-98000000D02*
X157620000Y-96190000D01*
X152445000Y-98000000D02*
X155810000Y-98000000D01*
X150695000Y-96250000D02*
X152445000Y-98000000D01*
X142380000Y-96190000D02*
X142440000Y-96250000D01*
X142440000Y-96250000D02*
X150695000Y-96250000D01*
M02*
