G04 #@! TF.GenerationSoftware,KiCad,Pcbnew,(5.1.2)-1*
G04 #@! TF.CreationDate,2019-10-23T14:31:02-07:00*
G04 #@! TF.ProjectId,SparkFun-Cherry-MX-Switch-Breakout,53706172-6b46-4756-9e2d-436865727279,rev?*
G04 #@! TF.SameCoordinates,Original*
G04 #@! TF.FileFunction,Legend,Top*
G04 #@! TF.FilePolarity,Positive*
%FSLAX46Y46*%
G04 Gerber Fmt 4.6, Leading zero omitted, Abs format (unit mm)*
G04 Created by KiCad (PCBNEW (5.1.2)-1) date 2019-10-23 14:31:02*
%MOMM*%
%LPD*%
G04 APERTURE LIST*
%ADD10C,0.121920*%
%ADD11C,0.152400*%
%ADD12C,0.171450*%
%ADD13C,0.190500*%
%ADD14C,0.150000*%
%ADD15C,0.254000*%
%ADD16C,0.203200*%
%ADD17C,0.228600*%
G04 APERTURE END LIST*
D10*
X182952266Y-102757230D02*
X182952266Y-101985070D01*
X183393500Y-102757230D02*
X183062575Y-102315996D01*
X183393500Y-101985070D02*
X182952266Y-102426304D01*
X184055352Y-102757230D02*
X184055352Y-102352765D01*
X184018582Y-102279226D01*
X183945043Y-102242457D01*
X183797965Y-102242457D01*
X183724426Y-102279226D01*
X184055352Y-102720460D02*
X183981813Y-102757230D01*
X183797965Y-102757230D01*
X183724426Y-102720460D01*
X183687657Y-102646921D01*
X183687657Y-102573382D01*
X183724426Y-102499843D01*
X183797965Y-102463074D01*
X183981813Y-102463074D01*
X184055352Y-102426304D01*
X184423047Y-102757230D02*
X184423047Y-102242457D01*
X184423047Y-101985070D02*
X184386278Y-102021840D01*
X184423047Y-102058609D01*
X184459817Y-102021840D01*
X184423047Y-101985070D01*
X184423047Y-102058609D01*
X184901051Y-102757230D02*
X184827512Y-102720460D01*
X184790742Y-102646921D01*
X184790742Y-101985070D01*
X185195207Y-102757230D02*
X185195207Y-101985070D01*
X185526133Y-102757230D02*
X185526133Y-102352765D01*
X185489363Y-102279226D01*
X185415824Y-102242457D01*
X185305516Y-102242457D01*
X185231977Y-102279226D01*
X185195207Y-102315996D01*
X186923375Y-102683691D02*
X186886605Y-102720460D01*
X186776297Y-102757230D01*
X186702758Y-102757230D01*
X186592449Y-102720460D01*
X186518910Y-102646921D01*
X186482140Y-102573382D01*
X186445371Y-102426304D01*
X186445371Y-102315996D01*
X186482140Y-102168918D01*
X186518910Y-102095379D01*
X186592449Y-102021840D01*
X186702758Y-101985070D01*
X186776297Y-101985070D01*
X186886605Y-102021840D01*
X186923375Y-102058609D01*
X187254300Y-102757230D02*
X187254300Y-101985070D01*
X187585226Y-102757230D02*
X187585226Y-102352765D01*
X187548457Y-102279226D01*
X187474918Y-102242457D01*
X187364609Y-102242457D01*
X187291070Y-102279226D01*
X187254300Y-102315996D01*
X188063230Y-102757230D02*
X187989691Y-102720460D01*
X187952921Y-102683691D01*
X187916152Y-102610152D01*
X187916152Y-102389535D01*
X187952921Y-102315996D01*
X187989691Y-102279226D01*
X188063230Y-102242457D01*
X188173539Y-102242457D01*
X188247078Y-102279226D01*
X188283847Y-102315996D01*
X188320617Y-102389535D01*
X188320617Y-102610152D01*
X188283847Y-102683691D01*
X188247078Y-102720460D01*
X188173539Y-102757230D01*
X188063230Y-102757230D01*
X188982468Y-102720460D02*
X188908929Y-102757230D01*
X188761851Y-102757230D01*
X188688312Y-102720460D01*
X188651542Y-102683691D01*
X188614773Y-102610152D01*
X188614773Y-102389535D01*
X188651542Y-102315996D01*
X188688312Y-102279226D01*
X188761851Y-102242457D01*
X188908929Y-102242457D01*
X188982468Y-102279226D01*
X189864937Y-102720460D02*
X189975245Y-102757230D01*
X190159093Y-102757230D01*
X190232632Y-102720460D01*
X190269401Y-102683691D01*
X190306171Y-102610152D01*
X190306171Y-102536613D01*
X190269401Y-102463074D01*
X190232632Y-102426304D01*
X190159093Y-102389535D01*
X190012015Y-102352765D01*
X189938476Y-102315996D01*
X189901706Y-102279226D01*
X189864937Y-102205687D01*
X189864937Y-102132148D01*
X189901706Y-102058609D01*
X189938476Y-102021840D01*
X190012015Y-101985070D01*
X190195862Y-101985070D01*
X190306171Y-102021840D01*
X190563558Y-102242457D02*
X190710636Y-102757230D01*
X190857714Y-102389535D01*
X191004792Y-102757230D01*
X191151870Y-102242457D01*
X191446026Y-102757230D02*
X191446026Y-102242457D01*
X191446026Y-101985070D02*
X191409257Y-102021840D01*
X191446026Y-102058609D01*
X191482796Y-102021840D01*
X191446026Y-101985070D01*
X191446026Y-102058609D01*
X191703413Y-102242457D02*
X191997569Y-102242457D01*
X191813721Y-101985070D02*
X191813721Y-102646921D01*
X191850491Y-102720460D01*
X191924030Y-102757230D01*
X191997569Y-102757230D01*
X192585881Y-102720460D02*
X192512342Y-102757230D01*
X192365264Y-102757230D01*
X192291725Y-102720460D01*
X192254956Y-102683691D01*
X192218186Y-102610152D01*
X192218186Y-102389535D01*
X192254956Y-102315996D01*
X192291725Y-102279226D01*
X192365264Y-102242457D01*
X192512342Y-102242457D01*
X192585881Y-102279226D01*
X192916807Y-102757230D02*
X192916807Y-101985070D01*
X193247733Y-102757230D02*
X193247733Y-102352765D01*
X193210963Y-102279226D01*
X193137424Y-102242457D01*
X193027116Y-102242457D01*
X192953577Y-102279226D01*
X192916807Y-102315996D01*
X186004137Y-103632925D02*
X186114445Y-103669695D01*
X186151215Y-103706464D01*
X186187984Y-103780003D01*
X186187984Y-103890312D01*
X186151215Y-103963851D01*
X186114445Y-104000620D01*
X186040906Y-104037390D01*
X185746750Y-104037390D01*
X185746750Y-103265230D01*
X186004137Y-103265230D01*
X186077676Y-103302000D01*
X186114445Y-103338769D01*
X186151215Y-103412308D01*
X186151215Y-103485847D01*
X186114445Y-103559386D01*
X186077676Y-103596156D01*
X186004137Y-103632925D01*
X185746750Y-103632925D01*
X186518910Y-104037390D02*
X186518910Y-103522617D01*
X186518910Y-103669695D02*
X186555680Y-103596156D01*
X186592449Y-103559386D01*
X186665988Y-103522617D01*
X186739527Y-103522617D01*
X187291070Y-104000620D02*
X187217531Y-104037390D01*
X187070453Y-104037390D01*
X186996914Y-104000620D01*
X186960144Y-103927081D01*
X186960144Y-103632925D01*
X186996914Y-103559386D01*
X187070453Y-103522617D01*
X187217531Y-103522617D01*
X187291070Y-103559386D01*
X187327840Y-103632925D01*
X187327840Y-103706464D01*
X186960144Y-103780003D01*
X187989691Y-104037390D02*
X187989691Y-103632925D01*
X187952921Y-103559386D01*
X187879382Y-103522617D01*
X187732304Y-103522617D01*
X187658765Y-103559386D01*
X187989691Y-104000620D02*
X187916152Y-104037390D01*
X187732304Y-104037390D01*
X187658765Y-104000620D01*
X187621996Y-103927081D01*
X187621996Y-103853542D01*
X187658765Y-103780003D01*
X187732304Y-103743234D01*
X187916152Y-103743234D01*
X187989691Y-103706464D01*
X188357386Y-104037390D02*
X188357386Y-103265230D01*
X188430925Y-103743234D02*
X188651542Y-104037390D01*
X188651542Y-103522617D02*
X188357386Y-103816773D01*
X189092777Y-104037390D02*
X189019238Y-104000620D01*
X188982468Y-103963851D01*
X188945699Y-103890312D01*
X188945699Y-103669695D01*
X188982468Y-103596156D01*
X189019238Y-103559386D01*
X189092777Y-103522617D01*
X189203085Y-103522617D01*
X189276624Y-103559386D01*
X189313394Y-103596156D01*
X189350163Y-103669695D01*
X189350163Y-103890312D01*
X189313394Y-103963851D01*
X189276624Y-104000620D01*
X189203085Y-104037390D01*
X189092777Y-104037390D01*
X190012015Y-103522617D02*
X190012015Y-104037390D01*
X189681089Y-103522617D02*
X189681089Y-103927081D01*
X189717859Y-104000620D01*
X189791398Y-104037390D01*
X189901706Y-104037390D01*
X189975245Y-104000620D01*
X190012015Y-103963851D01*
X190269401Y-103522617D02*
X190563558Y-103522617D01*
X190379710Y-103265230D02*
X190379710Y-103927081D01*
X190416480Y-104000620D01*
X190490019Y-104037390D01*
X190563558Y-104037390D01*
X163902266Y-102757230D02*
X163902266Y-101985070D01*
X164343500Y-102757230D02*
X164012575Y-102315996D01*
X164343500Y-101985070D02*
X163902266Y-102426304D01*
X165005352Y-102757230D02*
X165005352Y-102352765D01*
X164968582Y-102279226D01*
X164895043Y-102242457D01*
X164747965Y-102242457D01*
X164674426Y-102279226D01*
X165005352Y-102720460D02*
X164931813Y-102757230D01*
X164747965Y-102757230D01*
X164674426Y-102720460D01*
X164637657Y-102646921D01*
X164637657Y-102573382D01*
X164674426Y-102499843D01*
X164747965Y-102463074D01*
X164931813Y-102463074D01*
X165005352Y-102426304D01*
X165373047Y-102757230D02*
X165373047Y-102242457D01*
X165373047Y-101985070D02*
X165336278Y-102021840D01*
X165373047Y-102058609D01*
X165409817Y-102021840D01*
X165373047Y-101985070D01*
X165373047Y-102058609D01*
X165851051Y-102757230D02*
X165777512Y-102720460D01*
X165740742Y-102646921D01*
X165740742Y-101985070D01*
X166145207Y-102757230D02*
X166145207Y-101985070D01*
X166476133Y-102757230D02*
X166476133Y-102352765D01*
X166439363Y-102279226D01*
X166365824Y-102242457D01*
X166255516Y-102242457D01*
X166181977Y-102279226D01*
X166145207Y-102315996D01*
X167873375Y-102683691D02*
X167836605Y-102720460D01*
X167726297Y-102757230D01*
X167652758Y-102757230D01*
X167542449Y-102720460D01*
X167468910Y-102646921D01*
X167432140Y-102573382D01*
X167395371Y-102426304D01*
X167395371Y-102315996D01*
X167432140Y-102168918D01*
X167468910Y-102095379D01*
X167542449Y-102021840D01*
X167652758Y-101985070D01*
X167726297Y-101985070D01*
X167836605Y-102021840D01*
X167873375Y-102058609D01*
X168204300Y-102757230D02*
X168204300Y-101985070D01*
X168535226Y-102757230D02*
X168535226Y-102352765D01*
X168498457Y-102279226D01*
X168424918Y-102242457D01*
X168314609Y-102242457D01*
X168241070Y-102279226D01*
X168204300Y-102315996D01*
X169013230Y-102757230D02*
X168939691Y-102720460D01*
X168902921Y-102683691D01*
X168866152Y-102610152D01*
X168866152Y-102389535D01*
X168902921Y-102315996D01*
X168939691Y-102279226D01*
X169013230Y-102242457D01*
X169123539Y-102242457D01*
X169197078Y-102279226D01*
X169233847Y-102315996D01*
X169270617Y-102389535D01*
X169270617Y-102610152D01*
X169233847Y-102683691D01*
X169197078Y-102720460D01*
X169123539Y-102757230D01*
X169013230Y-102757230D01*
X169932468Y-102720460D02*
X169858929Y-102757230D01*
X169711851Y-102757230D01*
X169638312Y-102720460D01*
X169601542Y-102683691D01*
X169564773Y-102610152D01*
X169564773Y-102389535D01*
X169601542Y-102315996D01*
X169638312Y-102279226D01*
X169711851Y-102242457D01*
X169858929Y-102242457D01*
X169932468Y-102279226D01*
X170814937Y-102720460D02*
X170925245Y-102757230D01*
X171109093Y-102757230D01*
X171182632Y-102720460D01*
X171219401Y-102683691D01*
X171256171Y-102610152D01*
X171256171Y-102536613D01*
X171219401Y-102463074D01*
X171182632Y-102426304D01*
X171109093Y-102389535D01*
X170962015Y-102352765D01*
X170888476Y-102315996D01*
X170851706Y-102279226D01*
X170814937Y-102205687D01*
X170814937Y-102132148D01*
X170851706Y-102058609D01*
X170888476Y-102021840D01*
X170962015Y-101985070D01*
X171145862Y-101985070D01*
X171256171Y-102021840D01*
X171513558Y-102242457D02*
X171660636Y-102757230D01*
X171807714Y-102389535D01*
X171954792Y-102757230D01*
X172101870Y-102242457D01*
X172396026Y-102757230D02*
X172396026Y-102242457D01*
X172396026Y-101985070D02*
X172359257Y-102021840D01*
X172396026Y-102058609D01*
X172432796Y-102021840D01*
X172396026Y-101985070D01*
X172396026Y-102058609D01*
X172653413Y-102242457D02*
X172947569Y-102242457D01*
X172763721Y-101985070D02*
X172763721Y-102646921D01*
X172800491Y-102720460D01*
X172874030Y-102757230D01*
X172947569Y-102757230D01*
X173535881Y-102720460D02*
X173462342Y-102757230D01*
X173315264Y-102757230D01*
X173241725Y-102720460D01*
X173204956Y-102683691D01*
X173168186Y-102610152D01*
X173168186Y-102389535D01*
X173204956Y-102315996D01*
X173241725Y-102279226D01*
X173315264Y-102242457D01*
X173462342Y-102242457D01*
X173535881Y-102279226D01*
X173866807Y-102757230D02*
X173866807Y-101985070D01*
X174197733Y-102757230D02*
X174197733Y-102352765D01*
X174160963Y-102279226D01*
X174087424Y-102242457D01*
X173977116Y-102242457D01*
X173903577Y-102279226D01*
X173866807Y-102315996D01*
X166954137Y-103632925D02*
X167064445Y-103669695D01*
X167101215Y-103706464D01*
X167137984Y-103780003D01*
X167137984Y-103890312D01*
X167101215Y-103963851D01*
X167064445Y-104000620D01*
X166990906Y-104037390D01*
X166696750Y-104037390D01*
X166696750Y-103265230D01*
X166954137Y-103265230D01*
X167027676Y-103302000D01*
X167064445Y-103338769D01*
X167101215Y-103412308D01*
X167101215Y-103485847D01*
X167064445Y-103559386D01*
X167027676Y-103596156D01*
X166954137Y-103632925D01*
X166696750Y-103632925D01*
X167468910Y-104037390D02*
X167468910Y-103522617D01*
X167468910Y-103669695D02*
X167505680Y-103596156D01*
X167542449Y-103559386D01*
X167615988Y-103522617D01*
X167689527Y-103522617D01*
X168241070Y-104000620D02*
X168167531Y-104037390D01*
X168020453Y-104037390D01*
X167946914Y-104000620D01*
X167910144Y-103927081D01*
X167910144Y-103632925D01*
X167946914Y-103559386D01*
X168020453Y-103522617D01*
X168167531Y-103522617D01*
X168241070Y-103559386D01*
X168277840Y-103632925D01*
X168277840Y-103706464D01*
X167910144Y-103780003D01*
X168939691Y-104037390D02*
X168939691Y-103632925D01*
X168902921Y-103559386D01*
X168829382Y-103522617D01*
X168682304Y-103522617D01*
X168608765Y-103559386D01*
X168939691Y-104000620D02*
X168866152Y-104037390D01*
X168682304Y-104037390D01*
X168608765Y-104000620D01*
X168571996Y-103927081D01*
X168571996Y-103853542D01*
X168608765Y-103780003D01*
X168682304Y-103743234D01*
X168866152Y-103743234D01*
X168939691Y-103706464D01*
X169307386Y-104037390D02*
X169307386Y-103265230D01*
X169380925Y-103743234D02*
X169601542Y-104037390D01*
X169601542Y-103522617D02*
X169307386Y-103816773D01*
X170042777Y-104037390D02*
X169969238Y-104000620D01*
X169932468Y-103963851D01*
X169895699Y-103890312D01*
X169895699Y-103669695D01*
X169932468Y-103596156D01*
X169969238Y-103559386D01*
X170042777Y-103522617D01*
X170153085Y-103522617D01*
X170226624Y-103559386D01*
X170263394Y-103596156D01*
X170300163Y-103669695D01*
X170300163Y-103890312D01*
X170263394Y-103963851D01*
X170226624Y-104000620D01*
X170153085Y-104037390D01*
X170042777Y-104037390D01*
X170962015Y-103522617D02*
X170962015Y-104037390D01*
X170631089Y-103522617D02*
X170631089Y-103927081D01*
X170667859Y-104000620D01*
X170741398Y-104037390D01*
X170851706Y-104037390D01*
X170925245Y-104000620D01*
X170962015Y-103963851D01*
X171219401Y-103522617D02*
X171513558Y-103522617D01*
X171329710Y-103265230D02*
X171329710Y-103927081D01*
X171366480Y-104000620D01*
X171440019Y-104037390D01*
X171513558Y-104037390D01*
D11*
X183626092Y-108818638D02*
X183074549Y-108818638D01*
X183350320Y-108818638D02*
X183350320Y-107853438D01*
X183258397Y-107991323D01*
X183166473Y-108083247D01*
X183074549Y-108129209D01*
X164576092Y-108818638D02*
X164024549Y-108818638D01*
X164300320Y-108818638D02*
X164300320Y-107853438D01*
X164208397Y-107991323D01*
X164116473Y-108083247D01*
X164024549Y-108129209D01*
D12*
X178520707Y-103887560D02*
X179348021Y-103887560D01*
X178934364Y-104301217D02*
X178934364Y-103473903D01*
X159470707Y-103887560D02*
X160298021Y-103887560D01*
X159884364Y-104301217D02*
X159884364Y-103473903D01*
D13*
X193012178Y-107335913D02*
X193012178Y-106416675D01*
X193471797Y-106876294D02*
X192552559Y-106876294D01*
X173962178Y-107335913D02*
X173962178Y-106416675D01*
X174421797Y-106876294D02*
X173502559Y-106876294D01*
D11*
X190852271Y-107637538D02*
X190300728Y-107637538D01*
X190576500Y-107637538D02*
X190576500Y-106672338D01*
X190484576Y-106810223D01*
X190392652Y-106902147D01*
X190300728Y-106948109D01*
X171802271Y-107637538D02*
X171250728Y-107637538D01*
X171526500Y-107637538D02*
X171526500Y-106672338D01*
X171434576Y-106810223D01*
X171342652Y-106902147D01*
X171250728Y-106948109D01*
D12*
X178520707Y-101347560D02*
X179348021Y-101347560D01*
X159470707Y-101347560D02*
X160298021Y-101347560D01*
D13*
X185735380Y-107483928D02*
X186654619Y-107483928D01*
X186195000Y-107943547D02*
X186195000Y-107024309D01*
X166685380Y-107483928D02*
X167604619Y-107483928D01*
X167145000Y-107943547D02*
X167145000Y-107024309D01*
X187957880Y-92624928D02*
X188877119Y-92624928D01*
X188417500Y-93084547D02*
X188417500Y-92165309D01*
X168907880Y-92624928D02*
X169827119Y-92624928D01*
X169367500Y-93084547D02*
X169367500Y-92165309D01*
D11*
X180184271Y-93743738D02*
X179632728Y-93743738D01*
X179908500Y-93743738D02*
X179908500Y-92778538D01*
X179816576Y-92916423D01*
X179724652Y-93008347D01*
X179632728Y-93054309D01*
X161134271Y-93743738D02*
X160582728Y-93743738D01*
X160858500Y-93743738D02*
X160858500Y-92778538D01*
X160766576Y-92916423D01*
X160674652Y-93008347D01*
X160582728Y-93054309D01*
X186089771Y-92981738D02*
X185538228Y-92981738D01*
X185814000Y-92981738D02*
X185814000Y-92016538D01*
X185722076Y-92154423D01*
X185630152Y-92246347D01*
X185538228Y-92292309D01*
X167039771Y-92981738D02*
X166488228Y-92981738D01*
X166764000Y-92981738D02*
X166764000Y-92016538D01*
X166672076Y-92154423D01*
X166580152Y-92246347D01*
X166488228Y-92292309D01*
D13*
X181163380Y-92942428D02*
X182082619Y-92942428D01*
X181623000Y-93402047D02*
X181623000Y-92482809D01*
X162113380Y-92942428D02*
X163032619Y-92942428D01*
X162573000Y-93402047D02*
X162573000Y-92482809D01*
D11*
X179371592Y-99166638D02*
X178820049Y-99166638D01*
X179095820Y-99166638D02*
X179095820Y-98201438D01*
X179003897Y-98339323D01*
X178911973Y-98431247D01*
X178820049Y-98477209D01*
X160321592Y-99166638D02*
X159770049Y-99166638D01*
X160045820Y-99166638D02*
X160045820Y-98201438D01*
X159953897Y-98339323D01*
X159861973Y-98431247D01*
X159770049Y-98477209D01*
X178820049Y-95753361D02*
X178866011Y-95707400D01*
X178957935Y-95661438D01*
X179187744Y-95661438D01*
X179279668Y-95707400D01*
X179325630Y-95753361D01*
X179371592Y-95845285D01*
X179371592Y-95937209D01*
X179325630Y-96075095D01*
X178774087Y-96626638D01*
X179371592Y-96626638D01*
X159770049Y-95753361D02*
X159816011Y-95707400D01*
X159907935Y-95661438D01*
X160137744Y-95661438D01*
X160229668Y-95707400D01*
X160275630Y-95753361D01*
X160321592Y-95845285D01*
X160321592Y-95937209D01*
X160275630Y-96075095D01*
X159724087Y-96626638D01*
X160321592Y-96626638D01*
D14*
X191516300Y-91237000D02*
X191516300Y-91745000D01*
X172466300Y-91237000D02*
X172466300Y-91745000D01*
X191516300Y-90729000D02*
X191516300Y-91237000D01*
X172466300Y-90729000D02*
X172466300Y-91237000D01*
X196355000Y-108763000D02*
X196228000Y-108128000D01*
X177305000Y-108763000D02*
X177178000Y-108128000D01*
X197244000Y-107493000D02*
X197117000Y-107620000D01*
X178194000Y-107493000D02*
X178067000Y-107620000D01*
X191033700Y-90729000D02*
X191033700Y-91745000D01*
X171983700Y-90729000D02*
X171983700Y-91745000D01*
X195593000Y-109144000D02*
X195720000Y-109017000D01*
X176543000Y-109144000D02*
X176670000Y-109017000D01*
X191516300Y-91237000D02*
X191033700Y-90729000D01*
X172466300Y-91237000D02*
X171983700Y-90729000D01*
X195720000Y-109017000D02*
X195720000Y-108636000D01*
X176670000Y-109017000D02*
X176670000Y-108636000D01*
X196863000Y-108255000D02*
X196228000Y-108128000D01*
X177813000Y-108255000D02*
X177178000Y-108128000D01*
X191033700Y-91745000D02*
X191516300Y-91237000D01*
X171983700Y-91745000D02*
X172466300Y-91237000D01*
X197117000Y-107620000D02*
X196736000Y-107620000D01*
X178067000Y-107620000D02*
X177686000Y-107620000D01*
X196863000Y-108255000D02*
X196736000Y-107620000D01*
X177813000Y-108255000D02*
X177686000Y-107620000D01*
X196355000Y-108763000D02*
X195720000Y-108636000D01*
X177305000Y-108763000D02*
X176670000Y-108636000D01*
D11*
X140720049Y-95753361D02*
X140766011Y-95707400D01*
X140857935Y-95661438D01*
X141087744Y-95661438D01*
X141179668Y-95707400D01*
X141225630Y-95753361D01*
X141271592Y-95845285D01*
X141271592Y-95937209D01*
X141225630Y-96075095D01*
X140674087Y-96626638D01*
X141271592Y-96626638D01*
X141271592Y-99166638D02*
X140720049Y-99166638D01*
X140995820Y-99166638D02*
X140995820Y-98201438D01*
X140903897Y-98339323D01*
X140811973Y-98431247D01*
X140720049Y-98477209D01*
D12*
X140420707Y-101347560D02*
X141248021Y-101347560D01*
X140420707Y-103887560D02*
X141248021Y-103887560D01*
X140834364Y-104301217D02*
X140834364Y-103473903D01*
D11*
X142084271Y-93743738D02*
X141532728Y-93743738D01*
X141808500Y-93743738D02*
X141808500Y-92778538D01*
X141716576Y-92916423D01*
X141624652Y-93008347D01*
X141532728Y-93054309D01*
D13*
X143063380Y-92942428D02*
X143982619Y-92942428D01*
X143523000Y-93402047D02*
X143523000Y-92482809D01*
D11*
X147989771Y-92981738D02*
X147438228Y-92981738D01*
X147714000Y-92981738D02*
X147714000Y-92016538D01*
X147622076Y-92154423D01*
X147530152Y-92246347D01*
X147438228Y-92292309D01*
D13*
X149857880Y-92624928D02*
X150777119Y-92624928D01*
X150317500Y-93084547D02*
X150317500Y-92165309D01*
D11*
X145526092Y-108818638D02*
X144974549Y-108818638D01*
X145250320Y-108818638D02*
X145250320Y-107853438D01*
X145158397Y-107991323D01*
X145066473Y-108083247D01*
X144974549Y-108129209D01*
D13*
X147635380Y-107483928D02*
X148554619Y-107483928D01*
X148095000Y-107943547D02*
X148095000Y-107024309D01*
D11*
X152752271Y-107637538D02*
X152200728Y-107637538D01*
X152476500Y-107637538D02*
X152476500Y-106672338D01*
X152384576Y-106810223D01*
X152292652Y-106902147D01*
X152200728Y-106948109D01*
D13*
X154912178Y-107335913D02*
X154912178Y-106416675D01*
X155371797Y-106876294D02*
X154452559Y-106876294D01*
D10*
X144852266Y-102757230D02*
X144852266Y-101985070D01*
X145293500Y-102757230D02*
X144962575Y-102315996D01*
X145293500Y-101985070D02*
X144852266Y-102426304D01*
X145955352Y-102757230D02*
X145955352Y-102352765D01*
X145918582Y-102279226D01*
X145845043Y-102242457D01*
X145697965Y-102242457D01*
X145624426Y-102279226D01*
X145955352Y-102720460D02*
X145881813Y-102757230D01*
X145697965Y-102757230D01*
X145624426Y-102720460D01*
X145587657Y-102646921D01*
X145587657Y-102573382D01*
X145624426Y-102499843D01*
X145697965Y-102463074D01*
X145881813Y-102463074D01*
X145955352Y-102426304D01*
X146323047Y-102757230D02*
X146323047Y-102242457D01*
X146323047Y-101985070D02*
X146286278Y-102021840D01*
X146323047Y-102058609D01*
X146359817Y-102021840D01*
X146323047Y-101985070D01*
X146323047Y-102058609D01*
X146801051Y-102757230D02*
X146727512Y-102720460D01*
X146690742Y-102646921D01*
X146690742Y-101985070D01*
X147095207Y-102757230D02*
X147095207Y-101985070D01*
X147426133Y-102757230D02*
X147426133Y-102352765D01*
X147389363Y-102279226D01*
X147315824Y-102242457D01*
X147205516Y-102242457D01*
X147131977Y-102279226D01*
X147095207Y-102315996D01*
X148823375Y-102683691D02*
X148786605Y-102720460D01*
X148676297Y-102757230D01*
X148602758Y-102757230D01*
X148492449Y-102720460D01*
X148418910Y-102646921D01*
X148382140Y-102573382D01*
X148345371Y-102426304D01*
X148345371Y-102315996D01*
X148382140Y-102168918D01*
X148418910Y-102095379D01*
X148492449Y-102021840D01*
X148602758Y-101985070D01*
X148676297Y-101985070D01*
X148786605Y-102021840D01*
X148823375Y-102058609D01*
X149154300Y-102757230D02*
X149154300Y-101985070D01*
X149485226Y-102757230D02*
X149485226Y-102352765D01*
X149448457Y-102279226D01*
X149374918Y-102242457D01*
X149264609Y-102242457D01*
X149191070Y-102279226D01*
X149154300Y-102315996D01*
X149963230Y-102757230D02*
X149889691Y-102720460D01*
X149852921Y-102683691D01*
X149816152Y-102610152D01*
X149816152Y-102389535D01*
X149852921Y-102315996D01*
X149889691Y-102279226D01*
X149963230Y-102242457D01*
X150073539Y-102242457D01*
X150147078Y-102279226D01*
X150183847Y-102315996D01*
X150220617Y-102389535D01*
X150220617Y-102610152D01*
X150183847Y-102683691D01*
X150147078Y-102720460D01*
X150073539Y-102757230D01*
X149963230Y-102757230D01*
X150882468Y-102720460D02*
X150808929Y-102757230D01*
X150661851Y-102757230D01*
X150588312Y-102720460D01*
X150551542Y-102683691D01*
X150514773Y-102610152D01*
X150514773Y-102389535D01*
X150551542Y-102315996D01*
X150588312Y-102279226D01*
X150661851Y-102242457D01*
X150808929Y-102242457D01*
X150882468Y-102279226D01*
X151764937Y-102720460D02*
X151875245Y-102757230D01*
X152059093Y-102757230D01*
X152132632Y-102720460D01*
X152169401Y-102683691D01*
X152206171Y-102610152D01*
X152206171Y-102536613D01*
X152169401Y-102463074D01*
X152132632Y-102426304D01*
X152059093Y-102389535D01*
X151912015Y-102352765D01*
X151838476Y-102315996D01*
X151801706Y-102279226D01*
X151764937Y-102205687D01*
X151764937Y-102132148D01*
X151801706Y-102058609D01*
X151838476Y-102021840D01*
X151912015Y-101985070D01*
X152095862Y-101985070D01*
X152206171Y-102021840D01*
X152463558Y-102242457D02*
X152610636Y-102757230D01*
X152757714Y-102389535D01*
X152904792Y-102757230D01*
X153051870Y-102242457D01*
X153346026Y-102757230D02*
X153346026Y-102242457D01*
X153346026Y-101985070D02*
X153309257Y-102021840D01*
X153346026Y-102058609D01*
X153382796Y-102021840D01*
X153346026Y-101985070D01*
X153346026Y-102058609D01*
X153603413Y-102242457D02*
X153897569Y-102242457D01*
X153713721Y-101985070D02*
X153713721Y-102646921D01*
X153750491Y-102720460D01*
X153824030Y-102757230D01*
X153897569Y-102757230D01*
X154485881Y-102720460D02*
X154412342Y-102757230D01*
X154265264Y-102757230D01*
X154191725Y-102720460D01*
X154154956Y-102683691D01*
X154118186Y-102610152D01*
X154118186Y-102389535D01*
X154154956Y-102315996D01*
X154191725Y-102279226D01*
X154265264Y-102242457D01*
X154412342Y-102242457D01*
X154485881Y-102279226D01*
X154816807Y-102757230D02*
X154816807Y-101985070D01*
X155147733Y-102757230D02*
X155147733Y-102352765D01*
X155110963Y-102279226D01*
X155037424Y-102242457D01*
X154927116Y-102242457D01*
X154853577Y-102279226D01*
X154816807Y-102315996D01*
X147904137Y-103632925D02*
X148014445Y-103669695D01*
X148051215Y-103706464D01*
X148087984Y-103780003D01*
X148087984Y-103890312D01*
X148051215Y-103963851D01*
X148014445Y-104000620D01*
X147940906Y-104037390D01*
X147646750Y-104037390D01*
X147646750Y-103265230D01*
X147904137Y-103265230D01*
X147977676Y-103302000D01*
X148014445Y-103338769D01*
X148051215Y-103412308D01*
X148051215Y-103485847D01*
X148014445Y-103559386D01*
X147977676Y-103596156D01*
X147904137Y-103632925D01*
X147646750Y-103632925D01*
X148418910Y-104037390D02*
X148418910Y-103522617D01*
X148418910Y-103669695D02*
X148455680Y-103596156D01*
X148492449Y-103559386D01*
X148565988Y-103522617D01*
X148639527Y-103522617D01*
X149191070Y-104000620D02*
X149117531Y-104037390D01*
X148970453Y-104037390D01*
X148896914Y-104000620D01*
X148860144Y-103927081D01*
X148860144Y-103632925D01*
X148896914Y-103559386D01*
X148970453Y-103522617D01*
X149117531Y-103522617D01*
X149191070Y-103559386D01*
X149227840Y-103632925D01*
X149227840Y-103706464D01*
X148860144Y-103780003D01*
X149889691Y-104037390D02*
X149889691Y-103632925D01*
X149852921Y-103559386D01*
X149779382Y-103522617D01*
X149632304Y-103522617D01*
X149558765Y-103559386D01*
X149889691Y-104000620D02*
X149816152Y-104037390D01*
X149632304Y-104037390D01*
X149558765Y-104000620D01*
X149521996Y-103927081D01*
X149521996Y-103853542D01*
X149558765Y-103780003D01*
X149632304Y-103743234D01*
X149816152Y-103743234D01*
X149889691Y-103706464D01*
X150257386Y-104037390D02*
X150257386Y-103265230D01*
X150330925Y-103743234D02*
X150551542Y-104037390D01*
X150551542Y-103522617D02*
X150257386Y-103816773D01*
X150992777Y-104037390D02*
X150919238Y-104000620D01*
X150882468Y-103963851D01*
X150845699Y-103890312D01*
X150845699Y-103669695D01*
X150882468Y-103596156D01*
X150919238Y-103559386D01*
X150992777Y-103522617D01*
X151103085Y-103522617D01*
X151176624Y-103559386D01*
X151213394Y-103596156D01*
X151250163Y-103669695D01*
X151250163Y-103890312D01*
X151213394Y-103963851D01*
X151176624Y-104000620D01*
X151103085Y-104037390D01*
X150992777Y-104037390D01*
X151912015Y-103522617D02*
X151912015Y-104037390D01*
X151581089Y-103522617D02*
X151581089Y-103927081D01*
X151617859Y-104000620D01*
X151691398Y-104037390D01*
X151801706Y-104037390D01*
X151875245Y-104000620D01*
X151912015Y-103963851D01*
X152169401Y-103522617D02*
X152463558Y-103522617D01*
X152279710Y-103265230D02*
X152279710Y-103927081D01*
X152316480Y-104000620D01*
X152390019Y-104037390D01*
X152463558Y-104037390D01*
D14*
X157493000Y-109144000D02*
X157620000Y-109017000D01*
X157620000Y-109017000D02*
X157620000Y-108636000D01*
X158255000Y-108763000D02*
X157620000Y-108636000D01*
X159144000Y-107493000D02*
X159017000Y-107620000D01*
X158255000Y-108763000D02*
X158128000Y-108128000D01*
X158763000Y-108255000D02*
X158128000Y-108128000D01*
X158763000Y-108255000D02*
X158636000Y-107620000D01*
X159017000Y-107620000D02*
X158636000Y-107620000D01*
X152933700Y-90729000D02*
X152933700Y-91745000D01*
X152933700Y-91745000D02*
X153416300Y-91237000D01*
X153416300Y-91237000D02*
X152933700Y-90729000D01*
X153416300Y-90729000D02*
X153416300Y-91237000D01*
X153416300Y-91237000D02*
X153416300Y-91745000D01*
D15*
X182004000Y-93269000D02*
X194196000Y-93269000D01*
X194196000Y-93269000D02*
X194196000Y-106731000D01*
X194196000Y-106731000D02*
X182004000Y-106731000D01*
X182004000Y-106731000D02*
X182004000Y-93269000D01*
X162954000Y-93269000D02*
X175146000Y-93269000D01*
X175146000Y-93269000D02*
X175146000Y-106731000D01*
X175146000Y-106731000D02*
X162954000Y-106731000D01*
X162954000Y-106731000D02*
X162954000Y-93269000D01*
D16*
X195950341Y-107895790D02*
X195411526Y-107356974D01*
X195411526Y-107356974D02*
X194872710Y-106818159D01*
X195591131Y-107177369D02*
X195411526Y-107356974D01*
X195411526Y-107356974D02*
X195231920Y-107536580D01*
X176900341Y-107895790D02*
X176361526Y-107356974D01*
X176361526Y-107356974D02*
X175822710Y-106818159D01*
X176541131Y-107177369D02*
X176361526Y-107356974D01*
X176361526Y-107356974D02*
X176181920Y-107536580D01*
D15*
X192037000Y-92938800D02*
X193053000Y-92938800D01*
X172987000Y-92938800D02*
X174003000Y-92938800D01*
X143904000Y-106731000D02*
X143904000Y-93269000D01*
X156096000Y-106731000D02*
X143904000Y-106731000D01*
X156096000Y-93269000D02*
X156096000Y-106731000D01*
X143904000Y-93269000D02*
X156096000Y-93269000D01*
D16*
X157311526Y-107356974D02*
X157131920Y-107536580D01*
X157491131Y-107177369D02*
X157311526Y-107356974D01*
X157311526Y-107356974D02*
X156772710Y-106818159D01*
X157850341Y-107895790D02*
X157311526Y-107356974D01*
D15*
X153937000Y-92938800D02*
X154953000Y-92938800D01*
D17*
X184344610Y-105183414D02*
X185447695Y-105183414D01*
X184896152Y-105734957D02*
X184896152Y-104631871D01*
X191133304Y-105183414D02*
X192236390Y-105183414D01*
X165294610Y-105183414D02*
X166397695Y-105183414D01*
X165846152Y-105734957D02*
X165846152Y-104631871D01*
X172083304Y-105183414D02*
X173186390Y-105183414D01*
X153033304Y-105183414D02*
X154136390Y-105183414D01*
X146244610Y-105183414D02*
X147347695Y-105183414D01*
X146796152Y-105734957D02*
X146796152Y-104631871D01*
M02*
