G04 #@! TF.GenerationSoftware,KiCad,Pcbnew,(5.1.2)-1*
G04 #@! TF.CreationDate,2019-10-23T14:31:02-07:00*
G04 #@! TF.ProjectId,SparkFun-Cherry-MX-Switch-Breakout,53706172-6b46-4756-9e2d-436865727279,rev?*
G04 #@! TF.SameCoordinates,Original*
G04 #@! TF.FileFunction,Copper,L2,Bot*
G04 #@! TF.FilePolarity,Positive*
%FSLAX46Y46*%
G04 Gerber Fmt 4.6, Leading zero omitted, Abs format (unit mm)*
G04 Created by KiCad (PCBNEW (5.1.2)-1) date 2019-10-23 14:31:02*
%MOMM*%
%LPD*%
G04 APERTURE LIST*
%ADD10C,0.133350*%
%ADD11C,0.203200*%
%ADD12C,2.032000*%
%ADD13C,2.400000*%
%ADD14C,1.879600*%
%ADD15R,0.635000X1.270000*%
%ADD16C,0.800000*%
%ADD17C,0.250000*%
%ADD18C,0.254000*%
G04 APERTURE END LIST*
D10*
X197361475Y-93850025D02*
X197160391Y-94413058D01*
X196959308Y-93850025D01*
X196195191Y-94413058D02*
X196677791Y-94413058D01*
X196436491Y-94413058D02*
X196436491Y-93568508D01*
X196516925Y-93689158D01*
X196597358Y-93769591D01*
X196677791Y-93809808D01*
X195672375Y-93568508D02*
X195591941Y-93568508D01*
X195511508Y-93608725D01*
X195471291Y-93648941D01*
X195431075Y-93729375D01*
X195390858Y-93890241D01*
X195390858Y-94091325D01*
X195431075Y-94252191D01*
X195471291Y-94332625D01*
X195511508Y-94372841D01*
X195591941Y-94413058D01*
X195672375Y-94413058D01*
X195752808Y-94372841D01*
X195793025Y-94332625D01*
X195833241Y-94252191D01*
X195873458Y-94091325D01*
X195873458Y-93890241D01*
X195833241Y-93729375D01*
X195793025Y-93648941D01*
X195752808Y-93608725D01*
X195672375Y-93568508D01*
X195028908Y-94413058D02*
X195028908Y-93568508D01*
X195028908Y-93890241D02*
X194948475Y-93850025D01*
X194787608Y-93850025D01*
X194707175Y-93890241D01*
X194666958Y-93930458D01*
X194626741Y-94010891D01*
X194626741Y-94252191D01*
X194666958Y-94332625D01*
X194707175Y-94372841D01*
X194787608Y-94413058D01*
X194948475Y-94413058D01*
X195028908Y-94372841D01*
D11*
X192799000Y-93650000D02*
X193561000Y-93650000D01*
X173749000Y-93650000D02*
X174511000Y-93650000D01*
X193434000Y-106350000D02*
X194196000Y-106350000D01*
X174384000Y-106350000D02*
X175146000Y-106350000D01*
X155334000Y-106350000D02*
X156096000Y-106350000D01*
X154699000Y-93650000D02*
X155461000Y-93650000D01*
D12*
X186830000Y-105080000D03*
X189370000Y-105080000D03*
D13*
X188100000Y-94100000D03*
X193100000Y-96200000D03*
D12*
X167780000Y-105080000D03*
X170320000Y-105080000D03*
D13*
X169050000Y-94100000D03*
X174050000Y-96200000D03*
D14*
X179845000Y-91745000D03*
X182385000Y-91745000D03*
X160795000Y-91745000D03*
X163335000Y-91745000D03*
X184607500Y-91745000D03*
X187147500Y-91745000D03*
X165557500Y-91745000D03*
X168097500Y-91745000D03*
D15*
X192672000Y-93650000D03*
X193688000Y-93650000D03*
X173622000Y-93650000D03*
X174638000Y-93650000D03*
D14*
X194513500Y-108255000D03*
X196309551Y-106458949D03*
X175463500Y-108255000D03*
X177259551Y-106458949D03*
X184607500Y-108255000D03*
X187147500Y-108255000D03*
X165557500Y-108255000D03*
X168097500Y-108255000D03*
X190005000Y-91745000D03*
X192545000Y-91745000D03*
X170955000Y-91745000D03*
X173495000Y-91745000D03*
X189370000Y-108255000D03*
X191910000Y-108255000D03*
X170320000Y-108255000D03*
X172860000Y-108255000D03*
X195720000Y-96190000D03*
X195720000Y-98730000D03*
X195720000Y-101270000D03*
X195720000Y-103810000D03*
D15*
X193307000Y-106350000D03*
X194323000Y-106350000D03*
X174257000Y-106350000D03*
X175273000Y-106350000D03*
D13*
X155000000Y-96200000D03*
X150000000Y-94100000D03*
D12*
X151270000Y-105080000D03*
X148730000Y-105080000D03*
D14*
X158209551Y-106458949D03*
X156413500Y-108255000D03*
X154445000Y-91745000D03*
X151905000Y-91745000D03*
D15*
X156223000Y-106350000D03*
X155207000Y-106350000D03*
X155588000Y-93650000D03*
X154572000Y-93650000D03*
D14*
X142380000Y-103810000D03*
X142380000Y-101270000D03*
X142380000Y-98730000D03*
X142380000Y-96190000D03*
X144285000Y-91745000D03*
X141745000Y-91745000D03*
X153810000Y-108255000D03*
X151270000Y-108255000D03*
X149047500Y-91745000D03*
X146507500Y-91745000D03*
X149047500Y-108255000D03*
X146507500Y-108255000D03*
D16*
X146190000Y-97972999D03*
X165240000Y-97972999D03*
X184290000Y-97972999D03*
X157620000Y-103810000D03*
X176670000Y-103810000D03*
X157530000Y-96280000D03*
X176670000Y-96190000D03*
D17*
X151905000Y-93105000D02*
X155000000Y-96200000D01*
X151905000Y-93105000D02*
X151905000Y-91745000D01*
X153800001Y-94122389D02*
X154272390Y-93650000D01*
X155000000Y-96200000D02*
X153800001Y-95000001D01*
X153800001Y-95000001D02*
X153800001Y-94122389D01*
X170955000Y-93105000D02*
X170955000Y-91745000D01*
X190005000Y-93105000D02*
X190005000Y-91745000D01*
X172850001Y-94122389D02*
X173322390Y-93650000D01*
X191900001Y-94122389D02*
X192372390Y-93650000D01*
X172850001Y-95000001D02*
X172850001Y-94122389D01*
X191900001Y-95000001D02*
X191900001Y-94122389D01*
X174050000Y-96200000D02*
X172850001Y-95000001D01*
X193100000Y-96200000D02*
X191900001Y-95000001D01*
X170955000Y-93105000D02*
X174050000Y-96200000D01*
X190005000Y-93105000D02*
X193100000Y-96200000D01*
D18*
X151270000Y-108255000D02*
X150000000Y-106985000D01*
X150000000Y-106985000D02*
X148095000Y-106985000D01*
X148095000Y-106985000D02*
X147142500Y-106032500D01*
X146507500Y-108255000D02*
X146507500Y-106667500D01*
X146507500Y-106667500D02*
X147142500Y-106032500D01*
X144285000Y-94285000D02*
X141745000Y-91745000D01*
X146190000Y-96190000D02*
X144285000Y-94285000D01*
X147142500Y-106032500D02*
X146190000Y-105080000D01*
X146190000Y-105080000D02*
X146190000Y-96190000D01*
X167145000Y-106985000D02*
X166192500Y-106032500D01*
X186195000Y-106985000D02*
X185242500Y-106032500D01*
X165557500Y-108255000D02*
X165557500Y-106667500D01*
X184607500Y-108255000D02*
X184607500Y-106667500D01*
X165557500Y-106667500D02*
X166192500Y-106032500D01*
X184607500Y-106667500D02*
X185242500Y-106032500D01*
X170320000Y-108255000D02*
X169050000Y-106985000D01*
X189370000Y-108255000D02*
X188100000Y-106985000D01*
X169050000Y-106985000D02*
X167145000Y-106985000D01*
X188100000Y-106985000D02*
X186195000Y-106985000D01*
X163335000Y-94285000D02*
X160795000Y-91745000D01*
X182385000Y-94285000D02*
X179845000Y-91745000D01*
X165240000Y-96190000D02*
X163335000Y-94285000D01*
X184290000Y-96190000D02*
X182385000Y-94285000D01*
X166192500Y-106032500D02*
X165240000Y-105080000D01*
X185242500Y-106032500D02*
X184290000Y-105080000D01*
X165240000Y-105080000D02*
X165240000Y-96190000D01*
X184290000Y-105080000D02*
X184290000Y-96190000D01*
X156223000Y-105080000D02*
X156830600Y-105080000D01*
X156830600Y-105080000D02*
X158209550Y-106458950D01*
X156223000Y-106350000D02*
X156223000Y-105080000D01*
X150108950Y-106458950D02*
X148730000Y-105080000D01*
X153066050Y-106458950D02*
X150108950Y-106458950D01*
X156223000Y-105080000D02*
X154445000Y-105080000D01*
X154445000Y-105080000D02*
X153066050Y-106458950D01*
X175273000Y-105080000D02*
X175880600Y-105080000D01*
X194323000Y-105080000D02*
X194930600Y-105080000D01*
X175273000Y-106350000D02*
X175273000Y-105080000D01*
X194323000Y-106350000D02*
X194323000Y-105080000D01*
X175880600Y-105080000D02*
X177259550Y-106458950D01*
X194930600Y-105080000D02*
X196309550Y-106458950D01*
X169158950Y-106458950D02*
X167780000Y-105080000D01*
X188208950Y-106458950D02*
X186830000Y-105080000D01*
X172116050Y-106458950D02*
X169158950Y-106458950D01*
X191166050Y-106458950D02*
X188208950Y-106458950D01*
X175273000Y-105080000D02*
X173495000Y-105080000D01*
X194323000Y-105080000D02*
X192545000Y-105080000D01*
X173495000Y-105080000D02*
X172116050Y-106458950D01*
X192545000Y-105080000D02*
X191166050Y-106458950D01*
X153810000Y-108255000D02*
X155080000Y-108255000D01*
X155080000Y-108255000D02*
X156413500Y-108255000D01*
X155207000Y-106350000D02*
X155207000Y-107493000D01*
X155207000Y-107493000D02*
X155080000Y-107620000D01*
X155080000Y-107620000D02*
X155080000Y-108255000D01*
X144285000Y-91745000D02*
X144495000Y-91745000D01*
X149047500Y-91745000D02*
X148505000Y-91745000D01*
X148505000Y-91745000D02*
X147250000Y-93000000D01*
X144495000Y-91745000D02*
X145875000Y-93125000D01*
D17*
X147125000Y-93125000D02*
X145875000Y-93125000D01*
X147250000Y-93000000D02*
X147125000Y-93125000D01*
D18*
X155080000Y-103810000D02*
X157620000Y-103810000D01*
X153175000Y-101905000D02*
X155080000Y-103810000D01*
D17*
X153175000Y-99675000D02*
X153175000Y-101905000D01*
X147125000Y-93125000D02*
X147125000Y-93625000D01*
X147125000Y-93625000D02*
X153175000Y-99675000D01*
D18*
X174257000Y-107493000D02*
X174130000Y-107620000D01*
X193307000Y-107493000D02*
X193180000Y-107620000D01*
X174130000Y-107620000D02*
X174130000Y-108255000D01*
X193180000Y-107620000D02*
X193180000Y-108255000D01*
X174257000Y-106350000D02*
X174257000Y-107493000D01*
X193307000Y-106350000D02*
X193307000Y-107493000D01*
X172860000Y-108255000D02*
X174130000Y-108255000D01*
X191910000Y-108255000D02*
X193180000Y-108255000D01*
X174130000Y-108255000D02*
X175463500Y-108255000D01*
X193180000Y-108255000D02*
X194513500Y-108255000D01*
X163335000Y-91745000D02*
X163545000Y-91745000D01*
X182385000Y-91745000D02*
X182595000Y-91745000D01*
D17*
X166175000Y-93125000D02*
X166175000Y-93625000D01*
X185225000Y-93125000D02*
X185225000Y-93625000D01*
X172225000Y-99675000D02*
X172225000Y-101905000D01*
X191275000Y-99675000D02*
X191275000Y-101905000D01*
X166175000Y-93625000D02*
X172225000Y-99675000D01*
X185225000Y-93625000D02*
X191275000Y-99675000D01*
D18*
X174130000Y-103810000D02*
X176670000Y-103810000D01*
X193180000Y-103810000D02*
X195720000Y-103810000D01*
X172225000Y-101905000D02*
X174130000Y-103810000D01*
X191275000Y-101905000D02*
X193180000Y-103810000D01*
X168097500Y-91745000D02*
X167555000Y-91745000D01*
X187147500Y-91745000D02*
X186605000Y-91745000D01*
X167555000Y-91745000D02*
X166300000Y-93000000D01*
X186605000Y-91745000D02*
X185350000Y-93000000D01*
X163545000Y-91745000D02*
X164925000Y-93125000D01*
X182595000Y-91745000D02*
X183975000Y-93125000D01*
D17*
X166300000Y-93000000D02*
X166175000Y-93125000D01*
X185350000Y-93000000D02*
X185225000Y-93125000D01*
X166175000Y-93125000D02*
X164925000Y-93125000D01*
X185225000Y-93125000D02*
X183975000Y-93125000D01*
D18*
X155588000Y-93650000D02*
X155588000Y-92888000D01*
X155588000Y-92888000D02*
X154445000Y-91745000D01*
X155588000Y-93650000D02*
X155588000Y-94158000D01*
X155588000Y-94158000D02*
X157620000Y-96190000D01*
X174638000Y-93650000D02*
X174638000Y-94158000D01*
X193688000Y-93650000D02*
X193688000Y-94158000D01*
X174638000Y-93650000D02*
X174638000Y-92888000D01*
X193688000Y-93650000D02*
X193688000Y-92888000D01*
X174638000Y-94158000D02*
X176670000Y-96190000D01*
X193688000Y-94158000D02*
X195720000Y-96190000D01*
X174638000Y-92888000D02*
X173495000Y-91745000D01*
X193688000Y-92888000D02*
X192545000Y-91745000D01*
M02*
