G04 #@! TF.GenerationSoftware,KiCad,Pcbnew,(5.1.2)-1*
G04 #@! TF.CreationDate,2019-10-23T14:11:39-07:00*
G04 #@! TF.ProjectId,SparkFun-Cherry-MX-Switch-Breakout,53706172-6b46-4756-9e2d-436865727279,rev?*
G04 #@! TF.SameCoordinates,Original*
G04 #@! TF.FileFunction,Soldermask,Bot*
G04 #@! TF.FilePolarity,Negative*
%FSLAX46Y46*%
G04 Gerber Fmt 4.6, Leading zero omitted, Abs format (unit mm)*
G04 Created by KiCad (PCBNEW (5.1.2)-1) date 2019-10-23 14:11:39*
%MOMM*%
%LPD*%
G04 APERTURE LIST*
%ADD10C,0.150000*%
%ADD11C,0.101600*%
G04 APERTURE END LIST*
D10*
X154445000Y-93650000D02*
X155715000Y-93650000D01*
X155080000Y-106350000D02*
X156350000Y-106350000D01*
D11*
G36*
X156642100Y-107138964D02*
G01*
X156644502Y-107163350D01*
X156651615Y-107186799D01*
X156663166Y-107208410D01*
X156678711Y-107227352D01*
X156697653Y-107242897D01*
X156719264Y-107254448D01*
X156894621Y-107327083D01*
X156906788Y-107332123D01*
X157077354Y-107446092D01*
X157222408Y-107591146D01*
X157222409Y-107591148D01*
X157336378Y-107761714D01*
X157414880Y-107951235D01*
X157437033Y-108062604D01*
X157454900Y-108152431D01*
X157454900Y-108357569D01*
X157414880Y-108558765D01*
X157336377Y-108748288D01*
X157222408Y-108918854D01*
X157077354Y-109063908D01*
X156906788Y-109177877D01*
X156906787Y-109177878D01*
X156906786Y-109177878D01*
X156717265Y-109256380D01*
X156516070Y-109296400D01*
X156310930Y-109296400D01*
X156109735Y-109256380D01*
X155920214Y-109177878D01*
X155920213Y-109177878D01*
X155920212Y-109177877D01*
X155749646Y-109063908D01*
X155604592Y-108918854D01*
X155490623Y-108748288D01*
X155412120Y-108558765D01*
X155372100Y-108357569D01*
X155372100Y-108152431D01*
X155389968Y-108062604D01*
X155412120Y-107951235D01*
X155490622Y-107761714D01*
X155604591Y-107591148D01*
X155604592Y-107591146D01*
X155749646Y-107446092D01*
X155920212Y-107332123D01*
X155920214Y-107332122D01*
X155932379Y-107327083D01*
X155953990Y-107315532D01*
X155972932Y-107299987D01*
X155988477Y-107281045D01*
X156000028Y-107259434D01*
X156007141Y-107235985D01*
X156009543Y-107211599D01*
X156007141Y-107187213D01*
X156000028Y-107163764D01*
X155988477Y-107142153D01*
X155972932Y-107123211D01*
X155953990Y-107107666D01*
X155932379Y-107096115D01*
X155908930Y-107089002D01*
X155884544Y-107086600D01*
X154787900Y-107086600D01*
X154787900Y-105613400D01*
X156642100Y-105613400D01*
X156642100Y-107138964D01*
X156642100Y-107138964D01*
G37*
G36*
X149351265Y-107253620D02*
G01*
X149528621Y-107327083D01*
X149540788Y-107332123D01*
X149711354Y-107446092D01*
X149856408Y-107591146D01*
X149856409Y-107591148D01*
X149970378Y-107761714D01*
X150043266Y-107937682D01*
X150054817Y-107959293D01*
X150070362Y-107978234D01*
X150089304Y-107993780D01*
X150110915Y-108005331D01*
X150134364Y-108012444D01*
X150158750Y-108014846D01*
X150183136Y-108012444D01*
X150206585Y-108005331D01*
X150228196Y-107993780D01*
X150247137Y-107978235D01*
X150262683Y-107959293D01*
X150274234Y-107937682D01*
X150347122Y-107761714D01*
X150461091Y-107591148D01*
X150461092Y-107591146D01*
X150606146Y-107446092D01*
X150776712Y-107332123D01*
X150788880Y-107327083D01*
X150966235Y-107253620D01*
X151167430Y-107213600D01*
X151372570Y-107213600D01*
X151573765Y-107253620D01*
X151751121Y-107327083D01*
X151763288Y-107332123D01*
X151933854Y-107446092D01*
X152078908Y-107591146D01*
X152078909Y-107591148D01*
X152192878Y-107761714D01*
X152271380Y-107951235D01*
X152293533Y-108062604D01*
X152311400Y-108152431D01*
X152311400Y-108357569D01*
X152271380Y-108558765D01*
X152192877Y-108748288D01*
X152078908Y-108918854D01*
X151933854Y-109063908D01*
X151763288Y-109177877D01*
X151763287Y-109177878D01*
X151763286Y-109177878D01*
X151573765Y-109256380D01*
X151372570Y-109296400D01*
X151167430Y-109296400D01*
X150966235Y-109256380D01*
X150776714Y-109177878D01*
X150776713Y-109177878D01*
X150776712Y-109177877D01*
X150606146Y-109063908D01*
X150461092Y-108918854D01*
X150347123Y-108748288D01*
X150274233Y-108572317D01*
X150262683Y-108550707D01*
X150247138Y-108531766D01*
X150228196Y-108516220D01*
X150206585Y-108504669D01*
X150183136Y-108497556D01*
X150158750Y-108495154D01*
X150134364Y-108497556D01*
X150110915Y-108504669D01*
X150089304Y-108516220D01*
X150070363Y-108531765D01*
X150054817Y-108550707D01*
X150043267Y-108572317D01*
X149970377Y-108748288D01*
X149856408Y-108918854D01*
X149711354Y-109063908D01*
X149540788Y-109177877D01*
X149540787Y-109177878D01*
X149540786Y-109177878D01*
X149351265Y-109256380D01*
X149150070Y-109296400D01*
X148944930Y-109296400D01*
X148743735Y-109256380D01*
X148554214Y-109177878D01*
X148554213Y-109177878D01*
X148554212Y-109177877D01*
X148383646Y-109063908D01*
X148238592Y-108918854D01*
X148124623Y-108748288D01*
X148046120Y-108558765D01*
X148006100Y-108357569D01*
X148006100Y-108152431D01*
X148023968Y-108062604D01*
X148046120Y-107951235D01*
X148124622Y-107761714D01*
X148238591Y-107591148D01*
X148238592Y-107591146D01*
X148383646Y-107446092D01*
X148554212Y-107332123D01*
X148566380Y-107327083D01*
X148743735Y-107253620D01*
X148944930Y-107213600D01*
X149150070Y-107213600D01*
X149351265Y-107253620D01*
X149351265Y-107253620D01*
G37*
G36*
X146811265Y-107253620D02*
G01*
X146988621Y-107327083D01*
X147000788Y-107332123D01*
X147171354Y-107446092D01*
X147316408Y-107591146D01*
X147316409Y-107591148D01*
X147430378Y-107761714D01*
X147508880Y-107951235D01*
X147531033Y-108062604D01*
X147548900Y-108152431D01*
X147548900Y-108357569D01*
X147508880Y-108558765D01*
X147430377Y-108748288D01*
X147316408Y-108918854D01*
X147171354Y-109063908D01*
X147000788Y-109177877D01*
X147000787Y-109177878D01*
X147000786Y-109177878D01*
X146811265Y-109256380D01*
X146610070Y-109296400D01*
X146404930Y-109296400D01*
X146203735Y-109256380D01*
X146014214Y-109177878D01*
X146014213Y-109177878D01*
X146014212Y-109177877D01*
X145843646Y-109063908D01*
X145698592Y-108918854D01*
X145584623Y-108748288D01*
X145506120Y-108558765D01*
X145466100Y-108357569D01*
X145466100Y-108152431D01*
X145483968Y-108062604D01*
X145506120Y-107951235D01*
X145584622Y-107761714D01*
X145698591Y-107591148D01*
X145698592Y-107591146D01*
X145843646Y-107446092D01*
X146014212Y-107332123D01*
X146026380Y-107327083D01*
X146203735Y-107253620D01*
X146404930Y-107213600D01*
X146610070Y-107213600D01*
X146811265Y-107253620D01*
X146811265Y-107253620D01*
G37*
G36*
X154113765Y-107253620D02*
G01*
X154291121Y-107327083D01*
X154303288Y-107332123D01*
X154473854Y-107446092D01*
X154618908Y-107591146D01*
X154618909Y-107591148D01*
X154732878Y-107761714D01*
X154811380Y-107951235D01*
X154833533Y-108062604D01*
X154851400Y-108152431D01*
X154851400Y-108357569D01*
X154811380Y-108558765D01*
X154732877Y-108748288D01*
X154618908Y-108918854D01*
X154473854Y-109063908D01*
X154303288Y-109177877D01*
X154303287Y-109177878D01*
X154303286Y-109177878D01*
X154113765Y-109256380D01*
X153912570Y-109296400D01*
X153707430Y-109296400D01*
X153506235Y-109256380D01*
X153316714Y-109177878D01*
X153316713Y-109177878D01*
X153316712Y-109177877D01*
X153146146Y-109063908D01*
X153001092Y-108918854D01*
X152887123Y-108748288D01*
X152808620Y-108558765D01*
X152768600Y-108357569D01*
X152768600Y-108152431D01*
X152786468Y-108062604D01*
X152808620Y-107951235D01*
X152887122Y-107761714D01*
X153001091Y-107591148D01*
X153001092Y-107591146D01*
X153146146Y-107446092D01*
X153316712Y-107332123D01*
X153328880Y-107327083D01*
X153506235Y-107253620D01*
X153707430Y-107213600D01*
X153912570Y-107213600D01*
X154113765Y-107253620D01*
X154113765Y-107253620D01*
G37*
G36*
X142433004Y-106716112D02*
G01*
X142664164Y-106811862D01*
X142872204Y-106950870D01*
X143049130Y-107127796D01*
X143188138Y-107335836D01*
X143283888Y-107566996D01*
X143332700Y-107812395D01*
X143332700Y-108062605D01*
X143283888Y-108308004D01*
X143188138Y-108539164D01*
X143049130Y-108747204D01*
X142872204Y-108924130D01*
X142664164Y-109063138D01*
X142433004Y-109158888D01*
X142187605Y-109207700D01*
X141937395Y-109207700D01*
X141691996Y-109158888D01*
X141460836Y-109063138D01*
X141252796Y-108924130D01*
X141075870Y-108747204D01*
X140936862Y-108539164D01*
X140841112Y-108308004D01*
X140792300Y-108062605D01*
X140792300Y-107812395D01*
X140841112Y-107566996D01*
X140936862Y-107335836D01*
X141075870Y-107127796D01*
X141252796Y-106950870D01*
X141460836Y-106811862D01*
X141691996Y-106716112D01*
X141937395Y-106667300D01*
X142187605Y-106667300D01*
X142433004Y-106716112D01*
X142433004Y-106716112D01*
G37*
G36*
X158513316Y-105457569D02*
G01*
X158702839Y-105536072D01*
X158873405Y-105650041D01*
X159018459Y-105795095D01*
X159132428Y-105965661D01*
X159210931Y-106155184D01*
X159250951Y-106356380D01*
X159250951Y-106561518D01*
X159210931Y-106762714D01*
X159132428Y-106952237D01*
X159018459Y-107122803D01*
X158873405Y-107267857D01*
X158702839Y-107381826D01*
X158702838Y-107381827D01*
X158702837Y-107381827D01*
X158513316Y-107460329D01*
X158312121Y-107500349D01*
X158106981Y-107500349D01*
X157905786Y-107460329D01*
X157716265Y-107381827D01*
X157716264Y-107381827D01*
X157716263Y-107381826D01*
X157545697Y-107267857D01*
X157400643Y-107122803D01*
X157286674Y-106952237D01*
X157208171Y-106762714D01*
X157168151Y-106561518D01*
X157168151Y-106356380D01*
X157208171Y-106155184D01*
X157286674Y-105965661D01*
X157400643Y-105795095D01*
X157545697Y-105650041D01*
X157716263Y-105536072D01*
X157905786Y-105457569D01*
X158106981Y-105417549D01*
X158312121Y-105417549D01*
X158513316Y-105457569D01*
X158513316Y-105457569D01*
G37*
G36*
X151410800Y-103968512D02*
G01*
X151595992Y-104005348D01*
X151799382Y-104089595D01*
X151982429Y-104211903D01*
X152138097Y-104367571D01*
X152260405Y-104550618D01*
X152344652Y-104754008D01*
X152387600Y-104969926D01*
X152387600Y-105190074D01*
X152344652Y-105405992D01*
X152260405Y-105609382D01*
X152138097Y-105792429D01*
X151982429Y-105948097D01*
X151799382Y-106070405D01*
X151595992Y-106154652D01*
X151410800Y-106191488D01*
X151380075Y-106197600D01*
X151159925Y-106197600D01*
X151129200Y-106191488D01*
X150944008Y-106154652D01*
X150740618Y-106070405D01*
X150557571Y-105948097D01*
X150401903Y-105792429D01*
X150279595Y-105609382D01*
X150195348Y-105405992D01*
X150152400Y-105190074D01*
X150152400Y-104969926D01*
X150195348Y-104754008D01*
X150279595Y-104550618D01*
X150401903Y-104367571D01*
X150557571Y-104211903D01*
X150740618Y-104089595D01*
X150944008Y-104005348D01*
X151129200Y-103968512D01*
X151159925Y-103962400D01*
X151380075Y-103962400D01*
X151410800Y-103968512D01*
X151410800Y-103968512D01*
G37*
G36*
X148870800Y-103968512D02*
G01*
X149055992Y-104005348D01*
X149259382Y-104089595D01*
X149442429Y-104211903D01*
X149598097Y-104367571D01*
X149720405Y-104550618D01*
X149804652Y-104754008D01*
X149847600Y-104969926D01*
X149847600Y-105190074D01*
X149804652Y-105405992D01*
X149720405Y-105609382D01*
X149598097Y-105792429D01*
X149442429Y-105948097D01*
X149259382Y-106070405D01*
X149055992Y-106154652D01*
X148870800Y-106191488D01*
X148840075Y-106197600D01*
X148619925Y-106197600D01*
X148589200Y-106191488D01*
X148404008Y-106154652D01*
X148200618Y-106070405D01*
X148017571Y-105948097D01*
X147861903Y-105792429D01*
X147739595Y-105609382D01*
X147655348Y-105405992D01*
X147612400Y-105190074D01*
X147612400Y-104969926D01*
X147655348Y-104754008D01*
X147739595Y-104550618D01*
X147861903Y-104367571D01*
X148017571Y-104211903D01*
X148200618Y-104089595D01*
X148404008Y-104005348D01*
X148589200Y-103968512D01*
X148619925Y-103962400D01*
X148840075Y-103962400D01*
X148870800Y-103968512D01*
X148870800Y-103968512D01*
G37*
G36*
X142683765Y-102808620D02*
G01*
X142873288Y-102887123D01*
X143043854Y-103001092D01*
X143188908Y-103146146D01*
X143302877Y-103316712D01*
X143381380Y-103506235D01*
X143421400Y-103707431D01*
X143421400Y-103912569D01*
X143381380Y-104113765D01*
X143302877Y-104303288D01*
X143188908Y-104473854D01*
X143043854Y-104618908D01*
X142873288Y-104732877D01*
X142873287Y-104732878D01*
X142873286Y-104732878D01*
X142683765Y-104811380D01*
X142482570Y-104851400D01*
X142277430Y-104851400D01*
X142076235Y-104811380D01*
X141886714Y-104732878D01*
X141886713Y-104732878D01*
X141886712Y-104732877D01*
X141716146Y-104618908D01*
X141571092Y-104473854D01*
X141457123Y-104303288D01*
X141378620Y-104113765D01*
X141338600Y-103912569D01*
X141338600Y-103707431D01*
X141378620Y-103506235D01*
X141457123Y-103316712D01*
X141571092Y-103146146D01*
X141716146Y-103001092D01*
X141886712Y-102887123D01*
X142076235Y-102808620D01*
X142277430Y-102768600D01*
X142482570Y-102768600D01*
X142683765Y-102808620D01*
X142683765Y-102808620D01*
G37*
G36*
X157923765Y-102808620D02*
G01*
X158113288Y-102887123D01*
X158283854Y-103001092D01*
X158428908Y-103146146D01*
X158542877Y-103316712D01*
X158621380Y-103506235D01*
X158661400Y-103707431D01*
X158661400Y-103912569D01*
X158621380Y-104113765D01*
X158542877Y-104303288D01*
X158428908Y-104473854D01*
X158283854Y-104618908D01*
X158113288Y-104732877D01*
X158113287Y-104732878D01*
X158113286Y-104732878D01*
X157923765Y-104811380D01*
X157722570Y-104851400D01*
X157517430Y-104851400D01*
X157316235Y-104811380D01*
X157126714Y-104732878D01*
X157126713Y-104732878D01*
X157126712Y-104732877D01*
X156956146Y-104618908D01*
X156811092Y-104473854D01*
X156697123Y-104303288D01*
X156618620Y-104113765D01*
X156578600Y-103912569D01*
X156578600Y-103707431D01*
X156618620Y-103506235D01*
X156697123Y-103316712D01*
X156811092Y-103146146D01*
X156956146Y-103001092D01*
X157126712Y-102887123D01*
X157316235Y-102808620D01*
X157517430Y-102768600D01*
X157722570Y-102768600D01*
X157923765Y-102808620D01*
X157923765Y-102808620D01*
G37*
G36*
X157923765Y-100268620D02*
G01*
X157980164Y-100291981D01*
X158113288Y-100347123D01*
X158283854Y-100461092D01*
X158428908Y-100606146D01*
X158428909Y-100606148D01*
X158542878Y-100776714D01*
X158588591Y-100887075D01*
X158621380Y-100966235D01*
X158661400Y-101167431D01*
X158661400Y-101372569D01*
X158621380Y-101573765D01*
X158542877Y-101763288D01*
X158428908Y-101933854D01*
X158283854Y-102078908D01*
X158113288Y-102192877D01*
X158113287Y-102192878D01*
X158113286Y-102192878D01*
X157923765Y-102271380D01*
X157722570Y-102311400D01*
X157517430Y-102311400D01*
X157316235Y-102271380D01*
X157126714Y-102192878D01*
X157126713Y-102192878D01*
X157126712Y-102192877D01*
X156956146Y-102078908D01*
X156811092Y-101933854D01*
X156697123Y-101763288D01*
X156618620Y-101573765D01*
X156578600Y-101372569D01*
X156578600Y-101167431D01*
X156618620Y-100966235D01*
X156651409Y-100887075D01*
X156697122Y-100776714D01*
X156811091Y-100606148D01*
X156811092Y-100606146D01*
X156956146Y-100461092D01*
X157126712Y-100347123D01*
X157259837Y-100291981D01*
X157316235Y-100268620D01*
X157517430Y-100228600D01*
X157722570Y-100228600D01*
X157923765Y-100268620D01*
X157923765Y-100268620D01*
G37*
G36*
X142683765Y-100268620D02*
G01*
X142740164Y-100291981D01*
X142873288Y-100347123D01*
X143043854Y-100461092D01*
X143188908Y-100606146D01*
X143188909Y-100606148D01*
X143302878Y-100776714D01*
X143348591Y-100887075D01*
X143381380Y-100966235D01*
X143421400Y-101167431D01*
X143421400Y-101372569D01*
X143381380Y-101573765D01*
X143302877Y-101763288D01*
X143188908Y-101933854D01*
X143043854Y-102078908D01*
X142873288Y-102192877D01*
X142873287Y-102192878D01*
X142873286Y-102192878D01*
X142683765Y-102271380D01*
X142482570Y-102311400D01*
X142277430Y-102311400D01*
X142076235Y-102271380D01*
X141886714Y-102192878D01*
X141886713Y-102192878D01*
X141886712Y-102192877D01*
X141716146Y-102078908D01*
X141571092Y-101933854D01*
X141457123Y-101763288D01*
X141378620Y-101573765D01*
X141338600Y-101372569D01*
X141338600Y-101167431D01*
X141378620Y-100966235D01*
X141411409Y-100887075D01*
X141457122Y-100776714D01*
X141571091Y-100606148D01*
X141571092Y-100606146D01*
X141716146Y-100461092D01*
X141886712Y-100347123D01*
X142019837Y-100291981D01*
X142076235Y-100268620D01*
X142277430Y-100228600D01*
X142482570Y-100228600D01*
X142683765Y-100268620D01*
X142683765Y-100268620D01*
G37*
G36*
X150397985Y-98293860D02*
G01*
X150510748Y-98316290D01*
X150642741Y-98370963D01*
X150829408Y-98448283D01*
X151116196Y-98639909D01*
X151360091Y-98883804D01*
X151551717Y-99170592D01*
X151573543Y-99223286D01*
X151683710Y-99489252D01*
X151690990Y-99525851D01*
X151751000Y-99827540D01*
X151751000Y-100172460D01*
X151716257Y-100347122D01*
X151690990Y-100474151D01*
X151683710Y-100510747D01*
X151551717Y-100829408D01*
X151360091Y-101116196D01*
X151116196Y-101360091D01*
X150829408Y-101551717D01*
X150642741Y-101629037D01*
X150510748Y-101683710D01*
X150397985Y-101706140D01*
X150172460Y-101751000D01*
X149827540Y-101751000D01*
X149602015Y-101706140D01*
X149489252Y-101683710D01*
X149357259Y-101629037D01*
X149170592Y-101551717D01*
X148883804Y-101360091D01*
X148639909Y-101116196D01*
X148448283Y-100829408D01*
X148316290Y-100510747D01*
X148309011Y-100474151D01*
X148283743Y-100347122D01*
X148249000Y-100172460D01*
X148249000Y-99827540D01*
X148309010Y-99525851D01*
X148316290Y-99489252D01*
X148426457Y-99223286D01*
X148448283Y-99170592D01*
X148639909Y-98883804D01*
X148883804Y-98639909D01*
X149170592Y-98448283D01*
X149357259Y-98370963D01*
X149489252Y-98316290D01*
X149602015Y-98293860D01*
X149827540Y-98249000D01*
X150172460Y-98249000D01*
X150397985Y-98293860D01*
X150397985Y-98293860D01*
G37*
G36*
X144791981Y-99037468D02*
G01*
X144974151Y-99112926D01*
X145138100Y-99222473D01*
X145277527Y-99361900D01*
X145387074Y-99525849D01*
X145462532Y-99708019D01*
X145501000Y-99901410D01*
X145501000Y-100098590D01*
X145462532Y-100291981D01*
X145387074Y-100474151D01*
X145277527Y-100638100D01*
X145138100Y-100777527D01*
X144974151Y-100887074D01*
X144791981Y-100962532D01*
X144598591Y-101001000D01*
X144401409Y-101001000D01*
X144304715Y-100981766D01*
X144208019Y-100962532D01*
X144025849Y-100887074D01*
X143861900Y-100777527D01*
X143722473Y-100638100D01*
X143612926Y-100474151D01*
X143537468Y-100291981D01*
X143499000Y-100098590D01*
X143499000Y-99901410D01*
X143537468Y-99708019D01*
X143612926Y-99525849D01*
X143722473Y-99361900D01*
X143861900Y-99222473D01*
X144025849Y-99112926D01*
X144208019Y-99037468D01*
X144304715Y-99018234D01*
X144401409Y-98999000D01*
X144598591Y-98999000D01*
X144791981Y-99037468D01*
X144791981Y-99037468D01*
G37*
G36*
X155791981Y-99037468D02*
G01*
X155974151Y-99112926D01*
X156138100Y-99222473D01*
X156277527Y-99361900D01*
X156387074Y-99525849D01*
X156462532Y-99708019D01*
X156501000Y-99901410D01*
X156501000Y-100098590D01*
X156462532Y-100291981D01*
X156387074Y-100474151D01*
X156277527Y-100638100D01*
X156138100Y-100777527D01*
X155974151Y-100887074D01*
X155791981Y-100962532D01*
X155598591Y-101001000D01*
X155401409Y-101001000D01*
X155304715Y-100981766D01*
X155208019Y-100962532D01*
X155025849Y-100887074D01*
X154861900Y-100777527D01*
X154722473Y-100638100D01*
X154612926Y-100474151D01*
X154537468Y-100291981D01*
X154499000Y-100098590D01*
X154499000Y-99901410D01*
X154537468Y-99708019D01*
X154612926Y-99525849D01*
X154722473Y-99361900D01*
X154861900Y-99222473D01*
X155025849Y-99112926D01*
X155208019Y-99037468D01*
X155304715Y-99018234D01*
X155401409Y-98999000D01*
X155598591Y-98999000D01*
X155791981Y-99037468D01*
X155791981Y-99037468D01*
G37*
G36*
X142683765Y-97728620D02*
G01*
X142873288Y-97807123D01*
X143043854Y-97921092D01*
X143188908Y-98066146D01*
X143188909Y-98066148D01*
X143302878Y-98236714D01*
X143381380Y-98426235D01*
X143421400Y-98627430D01*
X143421400Y-98832570D01*
X143381380Y-99033765D01*
X143324705Y-99170592D01*
X143302877Y-99223288D01*
X143188908Y-99393854D01*
X143043854Y-99538908D01*
X142873288Y-99652877D01*
X142873287Y-99652878D01*
X142873286Y-99652878D01*
X142683765Y-99731380D01*
X142482570Y-99771400D01*
X142277430Y-99771400D01*
X142076235Y-99731380D01*
X141886714Y-99652878D01*
X141886713Y-99652878D01*
X141886712Y-99652877D01*
X141716146Y-99538908D01*
X141571092Y-99393854D01*
X141457123Y-99223288D01*
X141435296Y-99170592D01*
X141378620Y-99033765D01*
X141338600Y-98832570D01*
X141338600Y-98627430D01*
X141378620Y-98426235D01*
X141457122Y-98236714D01*
X141571091Y-98066148D01*
X141571092Y-98066146D01*
X141716146Y-97921092D01*
X141886712Y-97807123D01*
X142076235Y-97728620D01*
X142277430Y-97688600D01*
X142482570Y-97688600D01*
X142683765Y-97728620D01*
X142683765Y-97728620D01*
G37*
G36*
X157923765Y-97728620D02*
G01*
X158113288Y-97807123D01*
X158283854Y-97921092D01*
X158428908Y-98066146D01*
X158428909Y-98066148D01*
X158542878Y-98236714D01*
X158621380Y-98426235D01*
X158661400Y-98627430D01*
X158661400Y-98832570D01*
X158621380Y-99033765D01*
X158564705Y-99170592D01*
X158542877Y-99223288D01*
X158428908Y-99393854D01*
X158283854Y-99538908D01*
X158113288Y-99652877D01*
X158113287Y-99652878D01*
X158113286Y-99652878D01*
X157923765Y-99731380D01*
X157722570Y-99771400D01*
X157517430Y-99771400D01*
X157316235Y-99731380D01*
X157126714Y-99652878D01*
X157126713Y-99652878D01*
X157126712Y-99652877D01*
X156956146Y-99538908D01*
X156811092Y-99393854D01*
X156697123Y-99223288D01*
X156675296Y-99170592D01*
X156618620Y-99033765D01*
X156578600Y-98832570D01*
X156578600Y-98627430D01*
X156618620Y-98426235D01*
X156697122Y-98236714D01*
X156811091Y-98066148D01*
X156811092Y-98066146D01*
X156956146Y-97921092D01*
X157126712Y-97807123D01*
X157316235Y-97728620D01*
X157517430Y-97688600D01*
X157722570Y-97688600D01*
X157923765Y-97728620D01*
X157923765Y-97728620D01*
G37*
G36*
X155379662Y-94948419D02*
G01*
X155616537Y-95046536D01*
X155616539Y-95046537D01*
X155829722Y-95188981D01*
X156011019Y-95370278D01*
X156153463Y-95583461D01*
X156153464Y-95583463D01*
X156251581Y-95820338D01*
X156301600Y-96071802D01*
X156301600Y-96328198D01*
X156251581Y-96579662D01*
X156153464Y-96816537D01*
X156153463Y-96816539D01*
X156011019Y-97029722D01*
X155829722Y-97211019D01*
X155616539Y-97353463D01*
X155616538Y-97353464D01*
X155616537Y-97353464D01*
X155379662Y-97451581D01*
X155128198Y-97501600D01*
X154871802Y-97501600D01*
X154620338Y-97451581D01*
X154383463Y-97353464D01*
X154383462Y-97353464D01*
X154383461Y-97353463D01*
X154170278Y-97211019D01*
X153988981Y-97029722D01*
X153846537Y-96816539D01*
X153846536Y-96816537D01*
X153748419Y-96579662D01*
X153698400Y-96328198D01*
X153698400Y-96071802D01*
X153748419Y-95820338D01*
X153846536Y-95583463D01*
X153846537Y-95583461D01*
X153988981Y-95370278D01*
X154170278Y-95188981D01*
X154383461Y-95046537D01*
X154383463Y-95046536D01*
X154620338Y-94948419D01*
X154871802Y-94898400D01*
X155128198Y-94898400D01*
X155379662Y-94948419D01*
X155379662Y-94948419D01*
G37*
G36*
X157923765Y-95188620D02*
G01*
X158080313Y-95253464D01*
X158113288Y-95267123D01*
X158283854Y-95381092D01*
X158428908Y-95526146D01*
X158467206Y-95583463D01*
X158542878Y-95696714D01*
X158621380Y-95886235D01*
X158661400Y-96087430D01*
X158661400Y-96292570D01*
X158654313Y-96328198D01*
X158621380Y-96493765D01*
X158542877Y-96683288D01*
X158428908Y-96853854D01*
X158283854Y-96998908D01*
X158113288Y-97112877D01*
X158113287Y-97112878D01*
X158113286Y-97112878D01*
X157923765Y-97191380D01*
X157722570Y-97231400D01*
X157517430Y-97231400D01*
X157316235Y-97191380D01*
X157126714Y-97112878D01*
X157126713Y-97112878D01*
X157126712Y-97112877D01*
X156956146Y-96998908D01*
X156811092Y-96853854D01*
X156697123Y-96683288D01*
X156618620Y-96493765D01*
X156585687Y-96328198D01*
X156578600Y-96292570D01*
X156578600Y-96087430D01*
X156618620Y-95886235D01*
X156697122Y-95696714D01*
X156772794Y-95583463D01*
X156811092Y-95526146D01*
X156956146Y-95381092D01*
X157126712Y-95267123D01*
X157159688Y-95253464D01*
X157316235Y-95188620D01*
X157517430Y-95148600D01*
X157722570Y-95148600D01*
X157923765Y-95188620D01*
X157923765Y-95188620D01*
G37*
G36*
X142683765Y-95188620D02*
G01*
X142840313Y-95253464D01*
X142873288Y-95267123D01*
X143043854Y-95381092D01*
X143188908Y-95526146D01*
X143227206Y-95583463D01*
X143302878Y-95696714D01*
X143381380Y-95886235D01*
X143421400Y-96087430D01*
X143421400Y-96292570D01*
X143414313Y-96328198D01*
X143381380Y-96493765D01*
X143302877Y-96683288D01*
X143188908Y-96853854D01*
X143043854Y-96998908D01*
X142873288Y-97112877D01*
X142873287Y-97112878D01*
X142873286Y-97112878D01*
X142683765Y-97191380D01*
X142482570Y-97231400D01*
X142277430Y-97231400D01*
X142076235Y-97191380D01*
X141886714Y-97112878D01*
X141886713Y-97112878D01*
X141886712Y-97112877D01*
X141716146Y-96998908D01*
X141571092Y-96853854D01*
X141457123Y-96683288D01*
X141378620Y-96493765D01*
X141345687Y-96328198D01*
X141338600Y-96292570D01*
X141338600Y-96087430D01*
X141378620Y-95886235D01*
X141457122Y-95696714D01*
X141532794Y-95583463D01*
X141571092Y-95526146D01*
X141716146Y-95381092D01*
X141886712Y-95267123D01*
X141919688Y-95253464D01*
X142076235Y-95188620D01*
X142277430Y-95148600D01*
X142482570Y-95148600D01*
X142683765Y-95188620D01*
X142683765Y-95188620D01*
G37*
G36*
X149351265Y-90743620D02*
G01*
X149540788Y-90822123D01*
X149711354Y-90936092D01*
X149856408Y-91081146D01*
X149856409Y-91081148D01*
X149970378Y-91251714D01*
X150048880Y-91441235D01*
X150088900Y-91642430D01*
X150088900Y-91847570D01*
X150061533Y-91985154D01*
X150048880Y-92048765D01*
X149970377Y-92238288D01*
X149856408Y-92408854D01*
X149711354Y-92553908D01*
X149644837Y-92598353D01*
X149625898Y-92613897D01*
X149610353Y-92632839D01*
X149598802Y-92654449D01*
X149591689Y-92677898D01*
X149589287Y-92702284D01*
X149591689Y-92726670D01*
X149598802Y-92750119D01*
X149610353Y-92771730D01*
X149625899Y-92790672D01*
X149644841Y-92806217D01*
X149666451Y-92817768D01*
X149689900Y-92824881D01*
X149714286Y-92827283D01*
X149738672Y-92824881D01*
X149871802Y-92798400D01*
X150128198Y-92798400D01*
X150379662Y-92848419D01*
X150613910Y-92945448D01*
X150616539Y-92946537D01*
X150829722Y-93088981D01*
X151011019Y-93270278D01*
X151153463Y-93483461D01*
X151153464Y-93483463D01*
X151251581Y-93720338D01*
X151301600Y-93971802D01*
X151301600Y-94228198D01*
X151251581Y-94479662D01*
X151153464Y-94716537D01*
X151153463Y-94716539D01*
X151011019Y-94929722D01*
X150829722Y-95111019D01*
X150616539Y-95253463D01*
X150616538Y-95253464D01*
X150616537Y-95253464D01*
X150379662Y-95351581D01*
X150128198Y-95401600D01*
X149871802Y-95401600D01*
X149620338Y-95351581D01*
X149383463Y-95253464D01*
X149383462Y-95253464D01*
X149383461Y-95253463D01*
X149170278Y-95111019D01*
X148988981Y-94929722D01*
X148846537Y-94716539D01*
X148846536Y-94716537D01*
X148748419Y-94479662D01*
X148698400Y-94228198D01*
X148698400Y-93971802D01*
X148748419Y-93720338D01*
X148846536Y-93483463D01*
X148846537Y-93483461D01*
X148988981Y-93270278D01*
X149170278Y-93088981D01*
X149301139Y-93001542D01*
X149320076Y-92986001D01*
X149335622Y-92967059D01*
X149347173Y-92945448D01*
X149354286Y-92921999D01*
X149356688Y-92897613D01*
X149354286Y-92873227D01*
X149347173Y-92849778D01*
X149335622Y-92828167D01*
X149320077Y-92809226D01*
X149301135Y-92793680D01*
X149279524Y-92782129D01*
X149256075Y-92775016D01*
X149231689Y-92772614D01*
X149207304Y-92775016D01*
X149150071Y-92786400D01*
X148944930Y-92786400D01*
X148743735Y-92746380D01*
X148554214Y-92667878D01*
X148554213Y-92667878D01*
X148554212Y-92667877D01*
X148383646Y-92553908D01*
X148238592Y-92408854D01*
X148124623Y-92238288D01*
X148046120Y-92048765D01*
X148033467Y-91985154D01*
X148006100Y-91847570D01*
X148006100Y-91642430D01*
X148046120Y-91441235D01*
X148124622Y-91251714D01*
X148238591Y-91081148D01*
X148238592Y-91081146D01*
X148383646Y-90936092D01*
X148554212Y-90822123D01*
X148743735Y-90743620D01*
X148944930Y-90703600D01*
X149150070Y-90703600D01*
X149351265Y-90743620D01*
X149351265Y-90743620D01*
G37*
G36*
X154748765Y-90743620D02*
G01*
X154938288Y-90822123D01*
X155108854Y-90936092D01*
X155253908Y-91081146D01*
X155253909Y-91081148D01*
X155367878Y-91251714D01*
X155446380Y-91441235D01*
X155486400Y-91642430D01*
X155486400Y-91847570D01*
X155459033Y-91985154D01*
X155446380Y-92048765D01*
X155367877Y-92238288D01*
X155253908Y-92408854D01*
X155108854Y-92553908D01*
X154938288Y-92667877D01*
X154938287Y-92667878D01*
X154938286Y-92667878D01*
X154926121Y-92672917D01*
X154904510Y-92684468D01*
X154885568Y-92700013D01*
X154870023Y-92718955D01*
X154858472Y-92740566D01*
X154851359Y-92764015D01*
X154848957Y-92788401D01*
X154851359Y-92812787D01*
X154858472Y-92836236D01*
X154870023Y-92857847D01*
X154885568Y-92876789D01*
X154904510Y-92892334D01*
X154926121Y-92903885D01*
X154949570Y-92910998D01*
X154973956Y-92913400D01*
X156007100Y-92913400D01*
X156007100Y-94386600D01*
X154152900Y-94386600D01*
X154152900Y-92834733D01*
X154150498Y-92810347D01*
X154143385Y-92786898D01*
X154131834Y-92765287D01*
X154116289Y-92746345D01*
X154097347Y-92730800D01*
X154075740Y-92719251D01*
X153975905Y-92677898D01*
X153951714Y-92667878D01*
X153951713Y-92667878D01*
X153951712Y-92667877D01*
X153781146Y-92553908D01*
X153636092Y-92408854D01*
X153522123Y-92238288D01*
X153443620Y-92048765D01*
X153430967Y-91985154D01*
X153403600Y-91847570D01*
X153403600Y-91642430D01*
X153443620Y-91441235D01*
X153522122Y-91251714D01*
X153636091Y-91081148D01*
X153636092Y-91081146D01*
X153781146Y-90936092D01*
X153951712Y-90822123D01*
X154141235Y-90743620D01*
X154342430Y-90703600D01*
X154547570Y-90703600D01*
X154748765Y-90743620D01*
X154748765Y-90743620D01*
G37*
G36*
X158308004Y-90841112D02*
G01*
X158539164Y-90936862D01*
X158747204Y-91075870D01*
X158924130Y-91252796D01*
X159063138Y-91460836D01*
X159158888Y-91691996D01*
X159207700Y-91937395D01*
X159207700Y-92187605D01*
X159158888Y-92433004D01*
X159063138Y-92664164D01*
X158924130Y-92872204D01*
X158747204Y-93049130D01*
X158539164Y-93188138D01*
X158308004Y-93283888D01*
X158062605Y-93332700D01*
X157812395Y-93332700D01*
X157566996Y-93283888D01*
X157335836Y-93188138D01*
X157127796Y-93049130D01*
X156950870Y-92872204D01*
X156811862Y-92664164D01*
X156716112Y-92433004D01*
X156667300Y-92187605D01*
X156667300Y-91937395D01*
X156716112Y-91691996D01*
X156811862Y-91460836D01*
X156950870Y-91252796D01*
X157127796Y-91075870D01*
X157335836Y-90936862D01*
X157566996Y-90841112D01*
X157812395Y-90792300D01*
X158062605Y-90792300D01*
X158308004Y-90841112D01*
X158308004Y-90841112D01*
G37*
G36*
X152208765Y-90743620D02*
G01*
X152398288Y-90822123D01*
X152568854Y-90936092D01*
X152713908Y-91081146D01*
X152713909Y-91081148D01*
X152827878Y-91251714D01*
X152906380Y-91441235D01*
X152946400Y-91642430D01*
X152946400Y-91847570D01*
X152919033Y-91985154D01*
X152906380Y-92048765D01*
X152827877Y-92238288D01*
X152713908Y-92408854D01*
X152568854Y-92553908D01*
X152398288Y-92667877D01*
X152398287Y-92667878D01*
X152398286Y-92667878D01*
X152208765Y-92746380D01*
X152007570Y-92786400D01*
X151802430Y-92786400D01*
X151601235Y-92746380D01*
X151411714Y-92667878D01*
X151411713Y-92667878D01*
X151411712Y-92667877D01*
X151241146Y-92553908D01*
X151096092Y-92408854D01*
X150982123Y-92238288D01*
X150903620Y-92048765D01*
X150890967Y-91985154D01*
X150863600Y-91847570D01*
X150863600Y-91642430D01*
X150903620Y-91441235D01*
X150982122Y-91251714D01*
X151096091Y-91081148D01*
X151096092Y-91081146D01*
X151241146Y-90936092D01*
X151411712Y-90822123D01*
X151601235Y-90743620D01*
X151802430Y-90703600D01*
X152007570Y-90703600D01*
X152208765Y-90743620D01*
X152208765Y-90743620D01*
G37*
G36*
X144588765Y-90743620D02*
G01*
X144778288Y-90822123D01*
X144948854Y-90936092D01*
X145093908Y-91081146D01*
X145093909Y-91081148D01*
X145207878Y-91251714D01*
X145280766Y-91427682D01*
X145292317Y-91449293D01*
X145307862Y-91468234D01*
X145326804Y-91483780D01*
X145348415Y-91495331D01*
X145371864Y-91502444D01*
X145396250Y-91504846D01*
X145420636Y-91502444D01*
X145444085Y-91495331D01*
X145465696Y-91483780D01*
X145484637Y-91468235D01*
X145500183Y-91449293D01*
X145511734Y-91427682D01*
X145584622Y-91251714D01*
X145698591Y-91081148D01*
X145698592Y-91081146D01*
X145843646Y-90936092D01*
X146014212Y-90822123D01*
X146203735Y-90743620D01*
X146404930Y-90703600D01*
X146610070Y-90703600D01*
X146811265Y-90743620D01*
X147000788Y-90822123D01*
X147171354Y-90936092D01*
X147316408Y-91081146D01*
X147316409Y-91081148D01*
X147430378Y-91251714D01*
X147508880Y-91441235D01*
X147548900Y-91642430D01*
X147548900Y-91847570D01*
X147521533Y-91985154D01*
X147508880Y-92048765D01*
X147430377Y-92238288D01*
X147316408Y-92408854D01*
X147171354Y-92553908D01*
X147000788Y-92667877D01*
X147000787Y-92667878D01*
X147000786Y-92667878D01*
X146811265Y-92746380D01*
X146610070Y-92786400D01*
X146404930Y-92786400D01*
X146203735Y-92746380D01*
X146014214Y-92667878D01*
X146014213Y-92667878D01*
X146014212Y-92667877D01*
X145843646Y-92553908D01*
X145698592Y-92408854D01*
X145584623Y-92238288D01*
X145511733Y-92062317D01*
X145500183Y-92040707D01*
X145484638Y-92021766D01*
X145465696Y-92006220D01*
X145444085Y-91994669D01*
X145420636Y-91987556D01*
X145396250Y-91985154D01*
X145371864Y-91987556D01*
X145348415Y-91994669D01*
X145326804Y-92006220D01*
X145307863Y-92021765D01*
X145292317Y-92040707D01*
X145280767Y-92062317D01*
X145207877Y-92238288D01*
X145093908Y-92408854D01*
X144948854Y-92553908D01*
X144778288Y-92667877D01*
X144778287Y-92667878D01*
X144778286Y-92667878D01*
X144588765Y-92746380D01*
X144387570Y-92786400D01*
X144182430Y-92786400D01*
X143981235Y-92746380D01*
X143791714Y-92667878D01*
X143791713Y-92667878D01*
X143791712Y-92667877D01*
X143621146Y-92553908D01*
X143476092Y-92408854D01*
X143362123Y-92238288D01*
X143283620Y-92048765D01*
X143270967Y-91985154D01*
X143243600Y-91847570D01*
X143243600Y-91642430D01*
X143283620Y-91441235D01*
X143362122Y-91251714D01*
X143476091Y-91081148D01*
X143476092Y-91081146D01*
X143621146Y-90936092D01*
X143791712Y-90822123D01*
X143981235Y-90743620D01*
X144182430Y-90703600D01*
X144387570Y-90703600D01*
X144588765Y-90743620D01*
X144588765Y-90743620D01*
G37*
G36*
X142048765Y-90743620D02*
G01*
X142238288Y-90822123D01*
X142408854Y-90936092D01*
X142553908Y-91081146D01*
X142553909Y-91081148D01*
X142667878Y-91251714D01*
X142746380Y-91441235D01*
X142786400Y-91642430D01*
X142786400Y-91847570D01*
X142759033Y-91985154D01*
X142746380Y-92048765D01*
X142667877Y-92238288D01*
X142553908Y-92408854D01*
X142408854Y-92553908D01*
X142238288Y-92667877D01*
X142238287Y-92667878D01*
X142238286Y-92667878D01*
X142048765Y-92746380D01*
X141847570Y-92786400D01*
X141642430Y-92786400D01*
X141441235Y-92746380D01*
X141251714Y-92667878D01*
X141251713Y-92667878D01*
X141251712Y-92667877D01*
X141081146Y-92553908D01*
X140936092Y-92408854D01*
X140822123Y-92238288D01*
X140743620Y-92048765D01*
X140730967Y-91985154D01*
X140703600Y-91847570D01*
X140703600Y-91642430D01*
X140743620Y-91441235D01*
X140822122Y-91251714D01*
X140936091Y-91081148D01*
X140936092Y-91081146D01*
X141081146Y-90936092D01*
X141251712Y-90822123D01*
X141441235Y-90743620D01*
X141642430Y-90703600D01*
X141847570Y-90703600D01*
X142048765Y-90743620D01*
X142048765Y-90743620D01*
G37*
M02*
