G04 #@! TF.GenerationSoftware,KiCad,Pcbnew,(5.1.2)-1*
G04 #@! TF.CreationDate,2019-10-23T14:11:38-07:00*
G04 #@! TF.ProjectId,SparkFun-Cherry-MX-Switch-Breakout,53706172-6b46-4756-9e2d-436865727279,rev?*
G04 #@! TF.SameCoordinates,Original*
G04 #@! TF.FileFunction,Legend,Top*
G04 #@! TF.FilePolarity,Positive*
%FSLAX46Y46*%
G04 Gerber Fmt 4.6, Leading zero omitted, Abs format (unit mm)*
G04 Created by KiCad (PCBNEW (5.1.2)-1) date 2019-10-23 14:11:38*
%MOMM*%
%LPD*%
G04 APERTURE LIST*
%ADD10C,0.152400*%
%ADD11C,0.171450*%
%ADD12C,0.190500*%
%ADD13C,0.121920*%
%ADD14C,0.150000*%
%ADD15C,0.254000*%
%ADD16C,0.203200*%
%ADD17C,0.228600*%
G04 APERTURE END LIST*
D10*
X140720049Y-95753361D02*
X140766011Y-95707400D01*
X140857935Y-95661438D01*
X141087744Y-95661438D01*
X141179668Y-95707400D01*
X141225630Y-95753361D01*
X141271592Y-95845285D01*
X141271592Y-95937209D01*
X141225630Y-96075095D01*
X140674087Y-96626638D01*
X141271592Y-96626638D01*
X141271592Y-99166638D02*
X140720049Y-99166638D01*
X140995820Y-99166638D02*
X140995820Y-98201438D01*
X140903897Y-98339323D01*
X140811973Y-98431247D01*
X140720049Y-98477209D01*
D11*
X140420707Y-101347560D02*
X141248021Y-101347560D01*
X140420707Y-103887560D02*
X141248021Y-103887560D01*
X140834364Y-104301217D02*
X140834364Y-103473903D01*
D10*
X158957007Y-95753361D02*
X159002969Y-95707400D01*
X159094893Y-95661438D01*
X159324702Y-95661438D01*
X159416626Y-95707400D01*
X159462588Y-95753361D01*
X159508550Y-95845285D01*
X159508550Y-95937209D01*
X159462588Y-96075095D01*
X158911045Y-96626638D01*
X159508550Y-96626638D01*
X159508550Y-99166638D02*
X158957007Y-99166638D01*
X159232779Y-99166638D02*
X159232779Y-98201438D01*
X159140855Y-98339323D01*
X159048931Y-98431247D01*
X158957007Y-98477209D01*
D11*
X158980578Y-101347560D02*
X159807892Y-101347560D01*
X158980578Y-103887560D02*
X159807892Y-103887560D01*
X159394235Y-104301217D02*
X159394235Y-103473903D01*
D10*
X142084271Y-93743738D02*
X141532728Y-93743738D01*
X141808500Y-93743738D02*
X141808500Y-92778538D01*
X141716576Y-92916423D01*
X141624652Y-93008347D01*
X141532728Y-93054309D01*
D12*
X143063380Y-92942428D02*
X143982619Y-92942428D01*
X143523000Y-93402047D02*
X143523000Y-92482809D01*
D10*
X147989771Y-92981738D02*
X147438228Y-92981738D01*
X147714000Y-92981738D02*
X147714000Y-92016538D01*
X147622076Y-92154423D01*
X147530152Y-92246347D01*
X147438228Y-92292309D01*
D12*
X149857880Y-92624928D02*
X150777119Y-92624928D01*
X150317500Y-93084547D02*
X150317500Y-92165309D01*
D10*
X145526092Y-108818638D02*
X144974549Y-108818638D01*
X145250320Y-108818638D02*
X145250320Y-107853438D01*
X145158397Y-107991323D01*
X145066473Y-108083247D01*
X144974549Y-108129209D01*
D12*
X147635380Y-107483928D02*
X148554619Y-107483928D01*
X148095000Y-107943547D02*
X148095000Y-107024309D01*
D10*
X152752271Y-107637538D02*
X152200728Y-107637538D01*
X152476500Y-107637538D02*
X152476500Y-106672338D01*
X152384576Y-106810223D01*
X152292652Y-106902147D01*
X152200728Y-106948109D01*
D12*
X154912178Y-107335913D02*
X154912178Y-106416675D01*
X155371797Y-106876294D02*
X154452559Y-106876294D01*
D13*
X144852266Y-102757230D02*
X144852266Y-101985070D01*
X145293500Y-102757230D02*
X144962575Y-102315996D01*
X145293500Y-101985070D02*
X144852266Y-102426304D01*
X145955352Y-102757230D02*
X145955352Y-102352765D01*
X145918582Y-102279226D01*
X145845043Y-102242457D01*
X145697965Y-102242457D01*
X145624426Y-102279226D01*
X145955352Y-102720460D02*
X145881813Y-102757230D01*
X145697965Y-102757230D01*
X145624426Y-102720460D01*
X145587657Y-102646921D01*
X145587657Y-102573382D01*
X145624426Y-102499843D01*
X145697965Y-102463074D01*
X145881813Y-102463074D01*
X145955352Y-102426304D01*
X146323047Y-102757230D02*
X146323047Y-102242457D01*
X146323047Y-101985070D02*
X146286278Y-102021840D01*
X146323047Y-102058609D01*
X146359817Y-102021840D01*
X146323047Y-101985070D01*
X146323047Y-102058609D01*
X146801051Y-102757230D02*
X146727512Y-102720460D01*
X146690742Y-102646921D01*
X146690742Y-101985070D01*
X147095207Y-102757230D02*
X147095207Y-101985070D01*
X147426133Y-102757230D02*
X147426133Y-102352765D01*
X147389363Y-102279226D01*
X147315824Y-102242457D01*
X147205516Y-102242457D01*
X147131977Y-102279226D01*
X147095207Y-102315996D01*
X148823375Y-102683691D02*
X148786605Y-102720460D01*
X148676297Y-102757230D01*
X148602758Y-102757230D01*
X148492449Y-102720460D01*
X148418910Y-102646921D01*
X148382140Y-102573382D01*
X148345371Y-102426304D01*
X148345371Y-102315996D01*
X148382140Y-102168918D01*
X148418910Y-102095379D01*
X148492449Y-102021840D01*
X148602758Y-101985070D01*
X148676297Y-101985070D01*
X148786605Y-102021840D01*
X148823375Y-102058609D01*
X149154300Y-102757230D02*
X149154300Y-101985070D01*
X149485226Y-102757230D02*
X149485226Y-102352765D01*
X149448457Y-102279226D01*
X149374918Y-102242457D01*
X149264609Y-102242457D01*
X149191070Y-102279226D01*
X149154300Y-102315996D01*
X149963230Y-102757230D02*
X149889691Y-102720460D01*
X149852921Y-102683691D01*
X149816152Y-102610152D01*
X149816152Y-102389535D01*
X149852921Y-102315996D01*
X149889691Y-102279226D01*
X149963230Y-102242457D01*
X150073539Y-102242457D01*
X150147078Y-102279226D01*
X150183847Y-102315996D01*
X150220617Y-102389535D01*
X150220617Y-102610152D01*
X150183847Y-102683691D01*
X150147078Y-102720460D01*
X150073539Y-102757230D01*
X149963230Y-102757230D01*
X150882468Y-102720460D02*
X150808929Y-102757230D01*
X150661851Y-102757230D01*
X150588312Y-102720460D01*
X150551542Y-102683691D01*
X150514773Y-102610152D01*
X150514773Y-102389535D01*
X150551542Y-102315996D01*
X150588312Y-102279226D01*
X150661851Y-102242457D01*
X150808929Y-102242457D01*
X150882468Y-102279226D01*
X151764937Y-102720460D02*
X151875245Y-102757230D01*
X152059093Y-102757230D01*
X152132632Y-102720460D01*
X152169401Y-102683691D01*
X152206171Y-102610152D01*
X152206171Y-102536613D01*
X152169401Y-102463074D01*
X152132632Y-102426304D01*
X152059093Y-102389535D01*
X151912015Y-102352765D01*
X151838476Y-102315996D01*
X151801706Y-102279226D01*
X151764937Y-102205687D01*
X151764937Y-102132148D01*
X151801706Y-102058609D01*
X151838476Y-102021840D01*
X151912015Y-101985070D01*
X152095862Y-101985070D01*
X152206171Y-102021840D01*
X152463558Y-102242457D02*
X152610636Y-102757230D01*
X152757714Y-102389535D01*
X152904792Y-102757230D01*
X153051870Y-102242457D01*
X153346026Y-102757230D02*
X153346026Y-102242457D01*
X153346026Y-101985070D02*
X153309257Y-102021840D01*
X153346026Y-102058609D01*
X153382796Y-102021840D01*
X153346026Y-101985070D01*
X153346026Y-102058609D01*
X153603413Y-102242457D02*
X153897569Y-102242457D01*
X153713721Y-101985070D02*
X153713721Y-102646921D01*
X153750491Y-102720460D01*
X153824030Y-102757230D01*
X153897569Y-102757230D01*
X154485881Y-102720460D02*
X154412342Y-102757230D01*
X154265264Y-102757230D01*
X154191725Y-102720460D01*
X154154956Y-102683691D01*
X154118186Y-102610152D01*
X154118186Y-102389535D01*
X154154956Y-102315996D01*
X154191725Y-102279226D01*
X154265264Y-102242457D01*
X154412342Y-102242457D01*
X154485881Y-102279226D01*
X154816807Y-102757230D02*
X154816807Y-101985070D01*
X155147733Y-102757230D02*
X155147733Y-102352765D01*
X155110963Y-102279226D01*
X155037424Y-102242457D01*
X154927116Y-102242457D01*
X154853577Y-102279226D01*
X154816807Y-102315996D01*
X147904137Y-103632925D02*
X148014445Y-103669695D01*
X148051215Y-103706464D01*
X148087984Y-103780003D01*
X148087984Y-103890312D01*
X148051215Y-103963851D01*
X148014445Y-104000620D01*
X147940906Y-104037390D01*
X147646750Y-104037390D01*
X147646750Y-103265230D01*
X147904137Y-103265230D01*
X147977676Y-103302000D01*
X148014445Y-103338769D01*
X148051215Y-103412308D01*
X148051215Y-103485847D01*
X148014445Y-103559386D01*
X147977676Y-103596156D01*
X147904137Y-103632925D01*
X147646750Y-103632925D01*
X148418910Y-104037390D02*
X148418910Y-103522617D01*
X148418910Y-103669695D02*
X148455680Y-103596156D01*
X148492449Y-103559386D01*
X148565988Y-103522617D01*
X148639527Y-103522617D01*
X149191070Y-104000620D02*
X149117531Y-104037390D01*
X148970453Y-104037390D01*
X148896914Y-104000620D01*
X148860144Y-103927081D01*
X148860144Y-103632925D01*
X148896914Y-103559386D01*
X148970453Y-103522617D01*
X149117531Y-103522617D01*
X149191070Y-103559386D01*
X149227840Y-103632925D01*
X149227840Y-103706464D01*
X148860144Y-103780003D01*
X149889691Y-104037390D02*
X149889691Y-103632925D01*
X149852921Y-103559386D01*
X149779382Y-103522617D01*
X149632304Y-103522617D01*
X149558765Y-103559386D01*
X149889691Y-104000620D02*
X149816152Y-104037390D01*
X149632304Y-104037390D01*
X149558765Y-104000620D01*
X149521996Y-103927081D01*
X149521996Y-103853542D01*
X149558765Y-103780003D01*
X149632304Y-103743234D01*
X149816152Y-103743234D01*
X149889691Y-103706464D01*
X150257386Y-104037390D02*
X150257386Y-103265230D01*
X150330925Y-103743234D02*
X150551542Y-104037390D01*
X150551542Y-103522617D02*
X150257386Y-103816773D01*
X150992777Y-104037390D02*
X150919238Y-104000620D01*
X150882468Y-103963851D01*
X150845699Y-103890312D01*
X150845699Y-103669695D01*
X150882468Y-103596156D01*
X150919238Y-103559386D01*
X150992777Y-103522617D01*
X151103085Y-103522617D01*
X151176624Y-103559386D01*
X151213394Y-103596156D01*
X151250163Y-103669695D01*
X151250163Y-103890312D01*
X151213394Y-103963851D01*
X151176624Y-104000620D01*
X151103085Y-104037390D01*
X150992777Y-104037390D01*
X151912015Y-103522617D02*
X151912015Y-104037390D01*
X151581089Y-103522617D02*
X151581089Y-103927081D01*
X151617859Y-104000620D01*
X151691398Y-104037390D01*
X151801706Y-104037390D01*
X151875245Y-104000620D01*
X151912015Y-103963851D01*
X152169401Y-103522617D02*
X152463558Y-103522617D01*
X152279710Y-103265230D02*
X152279710Y-103927081D01*
X152316480Y-104000620D01*
X152390019Y-104037390D01*
X152463558Y-104037390D01*
D14*
X157493000Y-109144000D02*
X157620000Y-109017000D01*
X157620000Y-109017000D02*
X157620000Y-108636000D01*
X158255000Y-108763000D02*
X157620000Y-108636000D01*
X159144000Y-107493000D02*
X159017000Y-107620000D01*
X158255000Y-108763000D02*
X158128000Y-108128000D01*
X158763000Y-108255000D02*
X158128000Y-108128000D01*
X158763000Y-108255000D02*
X158636000Y-107620000D01*
X159017000Y-107620000D02*
X158636000Y-107620000D01*
X152933700Y-90729000D02*
X152933700Y-91745000D01*
X152933700Y-91745000D02*
X153416300Y-91237000D01*
X153416300Y-91237000D02*
X152933700Y-90729000D01*
X153416300Y-90729000D02*
X153416300Y-91237000D01*
X153416300Y-91237000D02*
X153416300Y-91745000D01*
D15*
X143904000Y-106731000D02*
X143904000Y-93269000D01*
X156096000Y-106731000D02*
X143904000Y-106731000D01*
X156096000Y-93269000D02*
X156096000Y-106731000D01*
X143904000Y-93269000D02*
X156096000Y-93269000D01*
D16*
X157311526Y-107356974D02*
X157131920Y-107536580D01*
X157491131Y-107177369D02*
X157311526Y-107356974D01*
X157311526Y-107356974D02*
X156772710Y-106818159D01*
X157850341Y-107895790D02*
X157311526Y-107356974D01*
D15*
X153937000Y-92938800D02*
X154953000Y-92938800D01*
D17*
X153033304Y-105183414D02*
X154136390Y-105183414D01*
X146244610Y-105183414D02*
X147347695Y-105183414D01*
X146796152Y-105734957D02*
X146796152Y-104631871D01*
M02*
